<?xml version="1.0" encoding="UTF-8"?>
<svg id="Capa_2" data-name="Capa 2" xmlns="http://www.w3.org/2000/svg" viewBox="0 0 190.68 190.78">
  <defs>
    <style>
      .cls-1 {
        fill: #c1272d;
        stroke-width: 0px;
      }
    </style>
  </defs>
  <g id="Capa_1-2" data-name="Capa 1">
    <path class="cls-1" d="m98.35,190.78l-6.84-.09c-.89-.13-1.79-.28-2.68-.4-4.29-.57-8.65-.85-12.87-1.75-23.19-4.93-42.19-16.77-56.45-35.68C2.19,129.9-3.57,104.02,2.11,75.86c4.69-23.25,16.8-42.16,35.71-56.43C60.08,2.63,85.24-3.22,112.64,1.66c22.24,3.96,40.7,14.93,55.34,32.14,11.78,13.84,18.97,29.82,21.53,47.84.47,3.3.78,6.62,1.17,9.93v7.45c-.12.66-.29,1.31-.37,1.98-.44,3.81-.61,7.68-1.33,11.44-4.96,25.61-18.11,46.03-39.41,61.08-12.25,8.66-25.89,14-40.78,16.02-3.47.47-6.96.81-10.44,1.23Zm-22.91-96.88c.59.55.61,1.47.05,2.05-2.79,2.84-10.15,10.24-13.84,13.93-5,5.01-10.06,9.96-14.99,15.03-5.23,5.37-5.38,13.27-.48,18.66,5.29,5.82,13.99,5.89,19.86.06,8.18-8.12,24.22-24.14,28.52-28.4.57-.57,1.49-.55,2.05.03,4.12,4.32,19.96,20.43,28.12,28.51,6.24,6.17,15.86,5.41,20.77-1.53,3.88-5.49,3.2-12.57-1.82-17.64-8.1-8.16-24.19-24.29-28.51-28.66-.57-.58-.55-1.49.04-2.05,3.76-3.5,16.02-15.44,22.14-21.57,2.41-2.42,4.91-4.75,7.19-7.29,5.94-6.64,3.89-17.02-4.06-20.99-5.34-2.67-11.34-1.63-15.87,2.89-8.18,8.14-24.25,24.19-28.55,28.45-.57.57-1.49.55-2.04-.03-4.14-4.34-20-20.47-27.95-28.37-5.02-4.99-12-5.76-17.47-2.03-7.17,4.89-7.99,14.63-1.68,21,8.07,8.14,24.18,23.87,28.54,27.95Z"/>
  </g>
</svg>