<?xml version="1.0" encoding="UTF-8"?>
<svg id="Capa_2" data-name="Capa 2" xmlns="http://www.w3.org/2000/svg" viewBox="0 0 311.44 359.51">
  <defs>
    <style>
      .cls-1 {
        stroke-width: 0px;
      }
    </style>
  </defs>
  <g id="Capa_1-2" data-name="Capa 1">
    <g>
      <path class="cls-1" d="m.01,179.35c0-39.55-.03-79.11.01-118.66C.06,31.14,19.7,7,48.53,1.16,52.53.35,56.7.06,60.79.06,101.57-.02,142.36,0,183.15.01c16.91,0,31.39,5.96,43.36,17.93,22.32,22.32,44.63,44.64,66.94,66.97,12.06,12.07,17.99,26.67,17.99,43.73-.01,56.65.03,113.3-.02,169.95-.03,34.54-26.37,60.85-60.94,60.88-63.24.05-126.47.05-189.71,0-34.33-.03-60.69-26.41-60.74-60.7-.05-39.8-.01-79.61-.01-119.41ZM167.7,23.97h-4.34c-33.8,0-67.61-.01-101.41,0-22.71,0-37.97,15.31-37.97,38.07,0,78.49-.01,156.98,0,235.47,0,22.69,15.33,37.99,38.06,37.99,62.49.01,124.98.01,187.48,0,22.69,0,37.95-15.32,37.96-38.09.01-49.79,0-99.58,0-149.37v-4.25h-4.49c-20.71,0-41.41.02-62.12,0-30.48-.04-53.13-22.74-53.16-53.28-.02-20.71,0-41.43,0-62.14v-4.4Zm23.95,1.08c0,21.97-.01,43.41,0,64.85.01,18.2,11.73,29.91,29.95,29.93,20.32.02,40.64,0,60.95,0h3.81c-1.41-6.79-4.29-12.28-8.74-16.77-23.02-23.17-46.11-46.28-69.27-69.32-4.48-4.46-9.97-7.34-16.71-8.69Z"/>
      <path class="cls-1" d="m167.69,197.65c11.45,0,22.51-.01,33.57.01,1.61,0,3.27-.05,4.84.28,5.87,1.24,9.91,6.72,9.47,12.61-.46,6.04-5.42,10.92-11.65,11.01-10.6.15-21.2.05-31.79.05-1.34,0-2.68,0-4.43,0,0,7.01,0,13.71,0,20.41,0,5.11.07,10.23-.02,15.34-.13,6.98-5.38,12.22-12.04,12.17-6.65-.05-11.81-5.33-11.87-12.35-.08-10.35-.02-20.71-.02-31.06,0-1.35,0-2.7,0-4.51-1.83,0-3.41,0-4.98,0-10.1,0-20.2.04-30.3-.02-7.28-.04-12.62-5.18-12.62-11.98,0-6.83,5.3-11.92,12.62-11.96,11.58-.05,23.17-.01,35.28-.01,0-1.5,0-2.82,0-4.13,0-10.23-.02-20.46,0-30.68.02-7.68,4.91-13.04,11.85-13.1,7.07-.06,12.07,5.39,12.09,13.26.03,11.35,0,22.7,0,34.65Z"/>
    </g>
  </g>
</svg>