<svg width="36" xmlns="http://www.w3.org/2000/svg" height="36" id="screenshot-7b3ef0c8-b42b-8085-8006-4ba3eead4d0f" viewBox="0 0 36 36" xmlns:xlink="http://www.w3.org/1999/xlink" fill="none" version="1.1"><g id="shape-7b3ef0c8-b42b-8085-8006-4ba3eead4d0f" width="24" class="feather feather-lock" height="24" rx="0" ry="0" style="fill: rgb(0, 0, 0);"><g id="shape-7b3ef0c8-b42b-8085-8006-4ba3eead4d41" style="display: none;"><g class="fills" id="fills-7b3ef0c8-b42b-8085-8006-4ba3eead4d41"><rect width="36" height="36" x="0" stroke-linejoin="round" transform="matrix(1.000000, 0.000000, 0.000000, 1.000000, 0.000000, 0.000000)" style="fill: none;" ry="0" fill="none" stroke-linecap="round" rx="0" y="0"/></g><g fill="none" stroke-linejoin="round" stroke-linecap="round" id="strokes-83e4c56b-647e-80cf-8006-a73b4f9929a2-7b3ef0c8-b42b-8085-8006-4ba3eead4d41" class="strokes"><g class="inner-stroke-shape" transform="matrix(1.000000, 0.000000, 0.000000, 1.000000, 0.000000, 0.000000)"><defs><clipPath id="inner-stroke-render-2-7b3ef0c8-b42b-8085-8006-4ba3eead4d41-0"><use href="#stroke-shape-render-2-7b3ef0c8-b42b-8085-8006-4ba3eead4d41-0"/></clipPath><rect rx="0" ry="0" x="0" y="0" width="36" height="36" id="stroke-shape-render-2-7b3ef0c8-b42b-8085-8006-4ba3eead4d41-0" style="fill: none; stroke-width: 6; stroke: rgb(67, 67, 67); stroke-opacity: 1;"/></defs><use href="#stroke-shape-render-2-7b3ef0c8-b42b-8085-8006-4ba3eead4d41-0" clip-path="url('#inner-stroke-render-2-7b3ef0c8-b42b-8085-8006-4ba3eead4d41-0')"/></g></g></g><g id="shape-7b3ef0c8-b42b-8085-8006-4ba3eead4d42"><g class="fills" id="fills-7b3ef0c8-b42b-8085-8006-4ba3eead4d42"><rect width="27" height="16.5" x="4.5" stroke-linejoin="round" transform="matrix(1.000000, 0.000000, 0.000000, 1.000000, 0.000000, 0.000000)" style="fill: none;" ry="0" fill="none" stroke-linecap="round" rx="0" y="16.5"/></g><g fill="none" stroke-linejoin="round" stroke-linecap="round" id="strokes-83e4c56b-647e-80cf-8006-a73b4f99ec48-7b3ef0c8-b42b-8085-8006-4ba3eead4d42" class="strokes"><g class="inner-stroke-shape" transform="matrix(1.000000, 0.000000, 0.000000, 1.000000, 0.000000, 0.000000)"><defs><clipPath id="inner-stroke-render-3-7b3ef0c8-b42b-8085-8006-4ba3eead4d42-0"><use href="#stroke-shape-render-3-7b3ef0c8-b42b-8085-8006-4ba3eead4d42-0"/></clipPath><rect rx="0" ry="0" x="4.5" y="16.5" width="27" height="16.5" id="stroke-shape-render-3-7b3ef0c8-b42b-8085-8006-4ba3eead4d42-0" style="fill: none; stroke-width: 6; stroke: rgb(67, 67, 67); stroke-opacity: 1;"/></defs><use href="#stroke-shape-render-3-7b3ef0c8-b42b-8085-8006-4ba3eead4d42-0" clip-path="url('#inner-stroke-render-3-7b3ef0c8-b42b-8085-8006-4ba3eead4d42-0')"/></g></g></g><g id="shape-7b3ef0c8-b42b-8085-8006-4ba3eead4d43"><g class="fills" id="fills-7b3ef0c8-b42b-8085-8006-4ba3eead4d43"><path d="M10.5,16.5L10.5,10.5C10.5,6.35784912109375,13.85791015625,3,18,3C22.14208984375,3,25.5,6.35784912109375,25.5,10.5L25.5,16.5" fill="none" stroke-linejoin="round" stroke-linecap="round" style="fill: none;"/></g><g fill="none" stroke-linejoin="round" stroke-linecap="round" id="strokes-83e4c56b-647e-80cf-8006-a73b4f9a9064-7b3ef0c8-b42b-8085-8006-4ba3eead4d43" class="strokes"><g class="stroke-shape"><path d="M10.5,16.5L10.5,10.5C10.5,6.35784912109375,13.85791015625,3,18,3C22.14208984375,3,25.5,6.35784912109375,25.5,10.5L25.5,16.5" style="fill: none; stroke-width: 3; stroke: rgb(67, 67, 67); stroke-opacity: 1;"/></g></g></g></g></svg>