<svg width="16.16" xmlns="http://www.w3.org/2000/svg" height="16.091" id="screenshot-f5dee560-95fa-80ab-8006-74d99abfd9e0" viewBox="-0.08 -0.045 16.16 16.091" xmlns:xlink="http://www.w3.org/1999/xlink" fill="none" version="1.1"><g id="shape-f5dee560-95fa-80ab-8006-74d99abfd9e0" width="24" height="24" rx="0" ry="0" style="fill: rgb(0, 0, 0);"><g id="shape-f5dee560-95fa-80ab-8006-74d99ac387f1" style="display: none;"><g class="fills" id="fills-f5dee560-95fa-80ab-8006-74d99ac387f1"><rect width="16" height="16.000000000003638" x="0" transform="matrix(0.999984, -0.005733, 0.010031, 0.999950, -0.080122, 0.046261)" style="fill: none;" ry="0" fill="none" rx="0" y="0"/></g><g fill="none" id="strokes-c17bb43f-82ae-80a2-8006-8949bce13603-f5dee560-95fa-80ab-8006-74d99ac387f1" class="strokes"><g class="stroke-shape"><rect rx="0" ry="0" x="0" y="0" transform="matrix(0.999984, -0.005733, 0.010031, 0.999950, -0.080122, 0.046261)" width="16" height="16.000000000003638" style="fill: none; stroke-width: 0; stroke: rgb(72, 72, 72); stroke-opacity: 1;"/></g></g></g><g id="shape-f5dee560-95fa-80ab-8006-74d99ac49661"><g class="fills" id="fills-f5dee560-95fa-80ab-8006-74d99ac49661"><path d="M9.85805606842041,5.160742282867432L6.12368106842041,8.953710556030273C5.86782169342041,9.215429306030273,5.87172794342041,9.635351181030273,6.13344669342041,9.897069931030273C6.39711856842041,10.154882431030273,6.82094669342041,10.152929306030273,7.07875919342041,9.889257431030273L10.81313419342041,6.100195407867432C11.58266544342041,5.315039157867432,11.57094669342041,4.047461032867432,10.78188419342041,3.2720701694488525C9.99282169342041,2.4927732944488525,8.72719669342041,2.5025389194488525,7.95375919342041,3.2876951694488525L4.22329044342041,7.078711032867432C2.93032169342041,8.389257431030273,2.94985294342041,10.498632431030273,4.26821231842041,11.793554306030273C5.58266544342041,13.088476181030273,7.69399356842041,13.074804306030273,8.98110294342041,11.766210556030273L12.71547794342041,7.973242282867432L13.66860294342041,8.910741806030273L9.93422794342041,12.701757431030273C8.12954044342041,14.535741806030273,5.17641544342041,14.553319931030273,3.33266544342041,12.740819931030273C1.4947748184204102,10.928319931030273,1.4635248184204102,7.975195407867432,3.26625919342041,6.141211032867432L7.00063419342041,2.3462889194488525C8.28969669342041,1.037695288658142,10.39907169342041,1.025976538658142,11.71547794342041,2.3208982944488525C13.02993106842041,3.6158201694488525,13.05141544342041,5.725195407867432,11.76235294342041,7.033789157867432L8.02797794342041,10.826757431030273C7.25454044342041,11.613866806030273,5.98891544342041,11.619726181030273,5.19985294342041,10.844335556030273C4.41079044342041,10.068944931030273,4.39907169342041,8.799413681030273,5.17250919342041,8.018163681030273L8.90493106842041,4.221289157867432L9.85805606842041,5.160742282867432Z" stroke="none" stroke-width="0" style="fill: rgb(72, 72, 72);"/></g></g></g></svg>