<svg width="32" xmlns="http://www.w3.org/2000/svg" height="32" id="screenshot-9d96cbde-8ad8-80c6-8006-760ae81bdaa5" viewBox="0 0 32 32" xmlns:xlink="http://www.w3.org/1999/xlink" fill="none" version="1.1"><g id="shape-9d96cbde-8ad8-80c6-8006-760ae81bdaa5" rx="0" ry="0"><g id="shape-9d96cbde-8ad8-80c6-8006-760ae81bdab5"><g class="fills" id="fills-9d96cbde-8ad8-80c6-8006-760ae81bdab5"><ellipse cx="16" cy="16" rx="16" ry="16" transform="matrix(1.000000, 0.000000, 0.000000, 1.000000, 0.000000, 0.000000)" style="fill: rgb(114, 225, 97); fill-opacity: 0.35;"/></g></g><g id="shape-9d96cbde-8ad8-80c6-8006-760ae81bdab6" width="24" class="feather feather-check-circle" height="24" rx="0" ry="0" style="fill: rgb(0, 0, 0);"><g id="shape-9d96cbde-8ad8-80c6-8006-760ae81bdab7" style="display: none;"><g class="fills" id="fills-9d96cbde-8ad8-80c6-8006-760ae81bdab7"><rect width="21.333333333339397" height="21.33333333333576" x="5.333333333335759" stroke-linejoin="round" transform="matrix(1.000000, 0.000000, 0.000000, 1.000000, 0.000000, 0.000000)" style="fill: none;" ry="0" fill="none" stroke-linecap="round" rx="0" y="5.333333333335759"/></g><g fill="none" stroke-linejoin="round" stroke-linecap="round" id="strokes-a7b1fe85-d3fe-8072-8006-7de347e4e334-9d96cbde-8ad8-80c6-8006-760ae81bdab7" class="strokes"><g class="inner-stroke-shape" transform="matrix(1.000000, 0.000000, 0.000000, 1.000000, 0.000000, 0.000000)"><defs><clipPath id="inner-stroke-render-4-9d96cbde-8ad8-80c6-8006-760ae81bdab7-0"><use href="#stroke-shape-render-4-9d96cbde-8ad8-80c6-8006-760ae81bdab7-0"/></clipPath><rect rx="0" ry="0" x="5.333333333335759" y="5.333333333335759" width="21.333333333339397" height="21.33333333333576" id="stroke-shape-render-4-9d96cbde-8ad8-80c6-8006-760ae81bdab7-0" style="fill: none; stroke-width: 4; stroke: rgb(82, 202, 64); stroke-opacity: 1;"/></defs><use href="#stroke-shape-render-4-9d96cbde-8ad8-80c6-8006-760ae81bdab7-0" clip-path="url('#inner-stroke-render-4-9d96cbde-8ad8-80c6-8006-760ae81bdab7-0')"/></g></g></g><g id="shape-9d96cbde-8ad8-80c6-8006-760ae81bdab8"><g class="fills" id="fills-9d96cbde-8ad8-80c6-8006-760ae81bdab8"><path d="M24.88671875,15.181640625L24.88671875,16C24.88671875,19.9375,22.29296875,23.400390625,18.521484375,24.521484375C14.74609375,25.634765625,10.685546875,24.134765625,8.54296875,20.833984375C6.40234375,17.53125,6.685546875,13.212890625,9.2421875,10.21875C11.798828125,7.228515625,16.021484375,6.2734375,19.6171875,7.875" fill="none" stroke-linejoin="round" stroke-linecap="round" style="fill: none;"/></g><g fill="none" stroke-linejoin="round" stroke-linecap="round" id="strokes-a7b1fe85-d3fe-8072-8006-7de347e69fb6-9d96cbde-8ad8-80c6-8006-760ae81bdab8" class="strokes"><g class="stroke-shape"><path d="M24.88671875,15.181640625L24.88671875,16C24.88671875,19.9375,22.29296875,23.400390625,18.521484375,24.521484375C14.74609375,25.634765625,10.685546875,24.134765625,8.54296875,20.833984375C6.40234375,17.53125,6.685546875,13.212890625,9.2421875,10.21875C11.798828125,7.228515625,16.021484375,6.2734375,19.6171875,7.875" style="fill: none; stroke-width: 2; stroke: rgb(82, 202, 64); stroke-opacity: 1;"/></g></g></g><g id="shape-9d96cbde-8ad8-80c6-8006-760ae81bdab9"><g class="fills" id="fills-9d96cbde-8ad8-80c6-8006-760ae81bdab9"><path d="M24.88671875,8.890625L15.998046875,17.787109375L13.33203125,15.119140625" fill="none" stroke-linejoin="round" stroke-linecap="round" style="fill: none;"/></g><g fill="none" stroke-linejoin="round" stroke-linecap="round" id="strokes-a7b1fe85-d3fe-8072-8006-7de347e7a672-9d96cbde-8ad8-80c6-8006-760ae81bdab9" class="strokes"><g class="stroke-shape"><path d="M24.88671875,8.890625L15.998046875,17.787109375L13.33203125,15.119140625" style="fill: none; stroke-width: 2; stroke: rgb(82, 202, 64); stroke-opacity: 1;"/></g></g></g></g></g></svg>