<svg xmlns="http://www.w3.org/2000/svg" viewBox="0 0 228.46 297.27"><defs><style>.cls-1{fill:none;stroke:#f1f4fd;stroke-miterlimit:10;stroke-width:9.04px;}.cls-2{fill:#f1f4fd;}</style></defs><g id="Capa_2" data-name="Capa 2"><g id="Capa_1-2" data-name="Capa 1"><rect class="cls-1" x="4.52" y="58.45" width="219.42" height="234.29" rx="25.91"/><path class="cls-1" d="M90.48,22.52H138A11.47,11.47,0,0,1,149.45,34V54.67a3.79,3.79,0,0,1-3.79,3.79H82.8A3.79,3.79,0,0,1,79,54.67V34A11.47,11.47,0,0,1,90.48,22.52Z"/><path class="cls-2" d="M166.08,153.71H131.7V119.33a6.4,6.4,0,0,0-6.39-6.4H104a6.41,6.41,0,0,0-6.4,6.4v34.38H63.22a6.39,6.39,0,0,0-6.39,6.39v21.31a6.4,6.4,0,0,0,6.39,6.4H97.6v34.37a6.4,6.4,0,0,0,6.4,6.4h21.31a6.39,6.39,0,0,0,6.39-6.4V187.81h34.38a6.41,6.41,0,0,0,6.4-6.4V160.1A6.4,6.4,0,0,0,166.08,153.71Z"/><path class="cls-1" d="M79.22,4.52h69.44A21.78,21.78,0,0,1,170.44,26.3V58.52a0,0,0,0,1,0,0h-113a0,0,0,0,1,0,0V26.3A21.78,21.78,0,0,1,79.22,4.52Z"/></g></g></svg>