<svg xmlns="http://www.w3.org/2000/svg" viewBox="0 0 240.02 296.65"><defs><style>.cls-1{fill:#f1f4fd;}.cls-2{fill:none;stroke:#f1f4fd;stroke-miterlimit:10;stroke-width:9.04px;}</style></defs><g id="Capa_2" data-name="Capa 2"><g id="Capa_1-2" data-name="Capa 1"><path class="cls-1" d="M165,76.28H137.89V49.18a5,5,0,0,0-5-5H116.05a5,5,0,0,0-5,5v27.1H83.9a5,5,0,0,0-5,5V98.12a5,5,0,0,0,5,5H111v27.09a5,5,0,0,0,5,5.05h16.79a5,5,0,0,0,5-5.05V103.17H165a5,5,0,0,0,5.05-5V81.33A5,5,0,0,0,165,76.28Z"/><path class="cls-2" d="M222.87,292.13H17.15A12.63,12.63,0,0,1,4.52,279.5V17.15A12.64,12.64,0,0,1,17.15,4.52H184.53A9.34,9.34,0,0,1,190.89,7l41.67,39a9.3,9.3,0,0,1,2.94,6.8V279.5A12.62,12.62,0,0,1,222.87,292.13Z"/><path class="cls-2" d="M183.35,9V46A9.4,9.4,0,0,0,193,55.19h41.58"/><line class="cls-2" x1="49.89" y1="169.62" x2="196.92" y2="169.62"/><line class="cls-2" x1="49.89" y1="204.38" x2="196.92" y2="204.38"/><line class="cls-2" x1="49.91" y1="239.13" x2="138.66" y2="239.13"/></g></g></svg>