<svg xmlns="http://www.w3.org/2000/svg" viewBox="0 0 225.03 295.01"><defs><style>.cls-1{fill:#f1f4fd;}.cls-2,.cls-3{fill:none;stroke:#f1f4fd;stroke-miterlimit:10;}.cls-2{stroke-width:9.04px;}.cls-3{stroke-width:9.03px;}</style></defs><g id="Capa_2" data-name="Capa 2"><g id="Capa_1-2" data-name="Capa 1"><path class="cls-1" d="M161.65,132.21H127.28V97.83a6.41,6.41,0,0,0-6.4-6.4H99.57a6.4,6.4,0,0,0-6.39,6.4v34.38H58.8a6.4,6.4,0,0,0-6.4,6.39v21.31a6.41,6.41,0,0,0,6.4,6.4H93.18v34.37a6.39,6.39,0,0,0,6.39,6.4h21.31a6.4,6.4,0,0,0,6.4-6.4V166.31h34.37a6.4,6.4,0,0,0,6.4-6.4V138.6A6.39,6.39,0,0,0,161.65,132.21Z"/><rect class="cls-2" x="25.81" y="51.28" width="173.41" height="211.83"/><rect class="cls-3" x="4.51" y="263.11" width="216" height="27.38" rx="2.69"/><path class="cls-2" d="M26.27,4.52h171A1.93,1.93,0,0,1,199,5.63l19.5,41.79a1.92,1.92,0,0,1-1.74,2.73H6.77A1.92,1.92,0,0,1,5,47.42L24.53,5.63A1.93,1.93,0,0,1,26.27,4.52Z"/></g></g></svg>