<svg id="Capa_4" data-name="Capa 4" xmlns="http://www.w3.org/2000/svg" viewBox="0 0 500 500"><defs><style>.cls-1{fill:#124789;}.cls-2{fill:#2977aa;}.cls-3{fill:#51abcc;}.cls-4{fill:#b7e0ed;}</style></defs><path class="cls-1" d="M4.93,487.29V409.56H20.84V474.1H54.39v13.19Z"/><path class="cls-1" d="M71.2,421.35a8.52,8.52,0,0,1-6-2.35,7.71,7.71,0,0,1,0-11.37,8.52,8.52,0,0,1,6-2.35,8.6,8.6,0,0,1,6.08,2.35,7.65,7.65,0,0,1,0,11.37A8.6,8.6,0,0,1,71.2,421.35Zm-7.82,65.94V429H79v58.32Z"/><path class="cls-1" d="M125,488.29a18,18,0,0,1-8-1.62,16.8,16.8,0,0,1-5.35-4,20.7,20.7,0,0,1-3.16-4.72h-.73v9.33H92.33V409.56H108v29.21h.47a23.55,23.55,0,0,1,3.11-4.74,16.09,16.09,0,0,1,5.29-4.12,18,18,0,0,1,8.25-1.67,22,22,0,0,1,11.84,3.33,23.29,23.29,0,0,1,8.58,10q3.21,6.68,3.21,16.65,0,9.69-3.13,16.4a23.69,23.69,0,0,1-8.5,10.18A21.89,21.89,0,0,1,125,488.29Zm-4.8-12.58a10.63,10.63,0,0,0,6.86-2.24,13.82,13.82,0,0,0,4.23-6.21,26.75,26.75,0,0,0,1.43-9.08,26.27,26.27,0,0,0-1.43-9,13.93,13.93,0,0,0-4.2-6.16,10.62,10.62,0,0,0-6.89-2.24,10.89,10.89,0,0,0-6.83,2.16,13.31,13.31,0,0,0-4.28,6.05,26.06,26.06,0,0,0-1.46,9.21,25.78,25.78,0,0,0,1.49,9.21,13.58,13.58,0,0,0,4.3,6.13A10.72,10.72,0,0,0,120.19,475.71Z"/><path class="cls-1" d="M186,488.44a30.77,30.77,0,0,1-15.39-3.65,24.59,24.59,0,0,1-9.94-10.38,38.19,38.19,0,0,1,0-31.77,25.56,25.56,0,0,1,9.75-10.6,28.22,28.22,0,0,1,14.82-3.8,30.67,30.67,0,0,1,10.7,1.82,24.36,24.36,0,0,1,8.71,5.51,25.39,25.39,0,0,1,5.87,9.2,36.51,36.51,0,0,1,2.11,13.05v4.38h-49v-9.81H205l-7.3,2.61a20.5,20.5,0,0,0-1.39-7.9,11.19,11.19,0,0,0-4.12-5.22,11.71,11.71,0,0,0-6.75-1.85,12.22,12.22,0,0,0-6.92,1.88,11.8,11.8,0,0,0-4.3,5.08,17.57,17.57,0,0,0-1.46,7.33v6.94a19,19,0,0,0,1.7,8.5,11.59,11.59,0,0,0,4.74,5.17,14.24,14.24,0,0,0,7.12,1.72,15.14,15.14,0,0,0,5-.78,10.35,10.35,0,0,0,3.84-2.32,10,10,0,0,0,2.42-3.79l14.19,2.67a20,20,0,0,1-4.9,8.42,23.35,23.35,0,0,1-8.74,5.61A34,34,0,0,1,186,488.44Z"/><path class="cls-1" d="M223.34,487.29V429h15.13v10.17h.62a15.07,15.07,0,0,1,5.4-8.19,14.37,14.37,0,0,1,8.69-2.77c.8,0,1.67.05,2.61.13a17.52,17.52,0,0,1,2.45.39v14a13.76,13.76,0,0,0-3-.58,35.51,35.51,0,0,0-3.75-.2,13.41,13.41,0,0,0-6.42,1.53,11.21,11.21,0,0,0-4.46,4.28,12.52,12.52,0,0,0-1.59,6.39v33.18Z"/><path class="cls-1" d="M291,488.55a27.64,27.64,0,0,1-10.17-1.75,17.6,17.6,0,0,1-11.22-13.38l6.78-1.62a12.7,12.7,0,0,0,5,7.85,16.41,16.41,0,0,0,9.53,2.58q6.61,0,10.61-3a8.93,8.93,0,0,0,4-7.41,7.94,7.94,0,0,0-2.37-5.89,15,15,0,0,0-7.12-3.5l-9.5-2.3q-7.5-1.82-11.24-5.71a13.54,13.54,0,0,1-3.73-9.78,14.45,14.45,0,0,1,2.64-8.61,17.44,17.44,0,0,1,7.25-5.79A25.28,25.28,0,0,1,292,428.18a24,24,0,0,1,9.49,1.7,17.19,17.19,0,0,1,6.55,4.77,20.83,20.83,0,0,1,3.89,7.31l-6.47,1.67a14.57,14.57,0,0,0-4.51-6.66c-2.11-1.75-5.07-2.63-8.9-2.63a15.66,15.66,0,0,0-9.55,2.77,8.49,8.49,0,0,0-3.75,7.14,7.86,7.86,0,0,0,2.53,6.05q2.53,2.35,7.9,3.66l8.92,2.14q7.41,1.81,11.09,5.68a13.46,13.46,0,0,1,3.68,9.65,14.8,14.8,0,0,1-2.77,8.87,18.37,18.37,0,0,1-7.69,6.06A27.72,27.72,0,0,1,291,488.55Z"/><path class="cls-1" d="M338.66,488.6a22.53,22.53,0,0,1-9.68-2,16.31,16.31,0,0,1-6.94-6,17.21,17.21,0,0,1-2.58-9.6,14.92,14.92,0,0,1,1.62-7.27,13.07,13.07,0,0,1,4.64-4.86,26.45,26.45,0,0,1,7.12-3,68.79,68.79,0,0,1,9.05-1.72c3.24-.41,6-.77,8.25-1.07a15,15,0,0,0,5.19-1.43,3.36,3.36,0,0,0,1.8-3.18v-1.36a13.48,13.48,0,0,0-1.59-6.73,10.61,10.61,0,0,0-4.65-4.33,16.57,16.57,0,0,0-7.43-1.51,19.08,19.08,0,0,0-7.25,1.27,15.79,15.79,0,0,0-5.2,3.34,14.44,14.44,0,0,0-3.1,4.52l-6.78-2.3a18.79,18.79,0,0,1,5.42-7.62,22.79,22.79,0,0,1,7.88-4.2,30.61,30.61,0,0,1,8.87-1.33,29.2,29.2,0,0,1,7.1.92,20.56,20.56,0,0,1,6.78,3.07,15.84,15.84,0,0,1,5.06,5.95,20.94,20.94,0,0,1,1.93,9.58v39.59h-6.94v-9.23h-.52a18.26,18.26,0,0,1-3.7,5.09,19.22,19.22,0,0,1-6,3.94A21.37,21.37,0,0,1,338.66,488.6Zm1-6.31a17.68,17.68,0,0,0,9.24-2.35,16.37,16.37,0,0,0,6.05-6.31,18.16,18.16,0,0,0,2.14-8.72v-8.29a6.86,6.86,0,0,1-2.56,1.3,32.77,32.77,0,0,1-4,1c-1.52.28-3,.52-4.57.73s-2.87.39-4,.52a36.22,36.22,0,0,0-8.32,1.88,12,12,0,0,0-5.27,3.55,8.81,8.81,0,0,0-1.8,5.69,10.1,10.1,0,0,0,1.73,6A11,11,0,0,0,333,481,16.59,16.59,0,0,0,339.7,482.29Z"/><path class="cls-1" d="M384.84,409.56v77.73h-7.1V409.56Z"/><path class="cls-1" d="M418.39,488.08A21.28,21.28,0,0,1,408,485.6a17.31,17.31,0,0,1-7.05-7.25,24.74,24.74,0,0,1-2.53-11.66V429h7.1v37.19q0,7.15,4,11.3c2.67,2.77,6.26,4.15,10.74,4.15a17.16,17.16,0,0,0,8.25-2,14.37,14.37,0,0,0,5.76-5.63,17.16,17.16,0,0,0,2.12-8.69V429h7.09v58.32h-6.89V473.68h1.05q-2.4,7.72-7.57,11.06A21.09,21.09,0,0,1,418.39,488.08Z"/><path class="cls-1" d="M475.62,488.55a27.72,27.72,0,0,1-10.17-1.75,18.17,18.17,0,0,1-7.3-5.11,18.41,18.41,0,0,1-3.92-8.27L461,471.8a12.67,12.67,0,0,0,5,7.85,16.36,16.36,0,0,0,9.52,2.58c4.42,0,8-1,10.62-3a8.93,8.93,0,0,0,4-7.41,7.91,7.91,0,0,0-2.38-5.89,14.9,14.9,0,0,0-7.12-3.5l-9.49-2.3q-7.51-1.82-11.25-5.71a13.58,13.58,0,0,1-3.73-9.78,14.45,14.45,0,0,1,2.64-8.61,17.44,17.44,0,0,1,7.25-5.79,25.28,25.28,0,0,1,10.51-2.09,24.11,24.11,0,0,1,9.5,1.7,17.34,17.34,0,0,1,6.55,4.77,20.82,20.82,0,0,1,3.88,7.31L490,443.63a14.57,14.57,0,0,0-4.51-6.66q-3.15-2.62-8.9-2.63a15.61,15.61,0,0,0-9.54,2.77,8.48,8.48,0,0,0-3.76,7.14,7.86,7.86,0,0,0,2.53,6.05q2.54,2.35,7.9,3.66l8.93,2.14q7.4,1.81,11.08,5.68a13.46,13.46,0,0,1,3.68,9.65,14.86,14.86,0,0,1-2.76,8.87,18.47,18.47,0,0,1-7.7,6.06A27.72,27.72,0,0,1,475.62,488.55Z"/><g id="Capa_3" data-name="Capa 3"><path class="cls-1" d="M390.21,318.39s-60.25,59.9-191,24.7c0,0-38.59-11.08-58.34,7.83-7.83,7.48-22.23,4.8-34.22,8.18,0,0,51,6.18,60.67,10.16s45,27.34,95.16,27.32C297.57,396.57,342.53,378.74,390.21,318.39Z"/></g><g id="Capa_4-2" data-name="Capa 4"><path class="cls-1" d="M240.23,338.14c48.49-19.76,142.31-167.1-50.4-242.82C300.44,197.45,251.61,315.2,240.23,338.14Z"/></g><g id="Capa_5" data-name="Capa 5"><path class="cls-2" d="M240.23,338.14c75.51-49.77,89.6-139.91,18.28-204.48C376.5,185.76,354.74,302.3,240.23,338.14Z"/></g><g id="Capa_6" data-name="Capa 6"><path class="cls-3" d="M270,335.32a162.27,162.27,0,0,1-29.76,2.82c76.36-24.22,117.92-87.85,85.64-148.18C392.43,236.34,357.75,320.53,270,335.32Z"/></g><g id="Capa_7" data-name="Capa 7"><path class="cls-4" d="M240.23,338.14c68.51,1.7,136.22-47.54,116.79-109.5C400,270,367.21,360.32,240.23,338.14Z"/></g></svg>