<svg width="40.129" xmlns="http://www.w3.org/2000/svg" height="40" id="screenshot-9d96cbde-8ad8-80c6-8006-760cd92e2d4b" viewBox="0 0 40.129 40" xmlns:xlink="http://www.w3.org/1999/xlink" fill="none" version="1.1"><g id="shape-9d96cbde-8ad8-80c6-8006-760cd92e2d4b" width="24" height="24" rx="0" ry="0" style="fill: rgb(0, 0, 0);"><g id="shape-9d96cbde-8ad8-80c6-8006-760cd92e2d4d" style="display: none;"><g class="fills" id="fills-9d96cbde-8ad8-80c6-8006-760cd92e2d4d"><rect width="40.128617363348894" height="40" x="0" transform="matrix(1.000000, 0.000000, 0.000000, 1.000000, 0.000000, 0.000000)" style="fill: none;" ry="0" fill="none" rx="0" y="0"/></g><g fill="none" id="strokes-310b964d-d539-808d-8006-7db99051c1af-9d96cbde-8ad8-80c6-8006-760cd92e2d4d" class="strokes"><g class="stroke-shape"><rect rx="0" ry="0" x="0" y="0" transform="matrix(1.000000, 0.000000, 0.000000, 1.000000, 0.000000, 0.000000)" width="40.128617363348894" height="40" style="fill: none; stroke-width: 0; stroke: rgb(138, 138, 138); stroke-opacity: 1;"/></g></g></g><g id="shape-9d96cbde-8ad8-80c6-8006-760cd92e2d4e"><g class="fills" id="fills-9d96cbde-8ad8-80c6-8006-760cd92e2d4e"><path d="M11.046730995178223,3.353515625C13.556496620178223,1.19921875,16.751808166503906,0.009765625,20.064308166503906,0C26.808448791503906,0,32.408058166503906,5,33.021339416503906,11.4453125C37.013526916503906,12.009765625,40.128761291503906,15.341796875,40.128761291503906,19.431640625C40.128761291503906,23.919921875,36.370948791503906,27.5,31.818214416503906,27.5L25.079933166503906,27.5C24.384620666503906,27.5,23.826026916503906,26.939453125,23.826026916503906,26.25C23.826026916503906,25.55859375,24.384620666503906,25,25.079933166503906,25L31.822120666503906,25C35.056495666503906,25,37.620948791503906,22.46875,37.620948791503906,19.431640625C37.620948791503906,16.392578125,35.056495666503906,13.861328125,31.818214416503906,13.861328125L30.562355041503906,13.861328125L30.562355041503906,12.611328125C30.566261291503906,7.060546875,25.900245666503906,2.5,20.064308166503906,2.5C17.357276916503906,2.509765625,14.736184120178223,3.484375,12.687355995178223,5.248046875C10.786965370178223,6.880859375,9.792824745178223,8.841796875,9.792824745178223,10.384765625L9.792824745178223,11.505859375L8.681496620178223,11.62890625C5.1736836433410645,12.01171875,2.5076680183410645,14.876953125,2.5076680183410645,18.29296875C2.5076680183410645,21.9609375,5.5877461433410645,25,9.478371620178223,25L15.048684120178223,25C15.738137245178223,25,16.302589416503906,25.55859375,16.302589416503906,26.25C16.302589416503906,26.939453125,15.738137245178223,27.5,15.048684120178223,27.5L9.478371620178223,27.5C4.2811055183410645,27.5,-0.00014444332919083536,23.412109375,-0.00014444332919083536,18.29296875C-0.00014444332919083536,13.88671875,3.1736836433410645,10.236328125,7.3768086433410645,9.310546875C7.7361836433410645,7.154296875,9.126809120178223,5.005859375,11.046730995178223,3.353515625" stroke="none" stroke-width="0" fill-rule="evenodd" style="fill: rgb(138, 138, 138); fill-opacity: 1;"/></g></g><g id="shape-9d96cbde-8ad8-80c6-8006-760cd92e2d4f"><g class="fills" id="fills-9d96cbde-8ad8-80c6-8006-760cd92e2d4f"><path d="M19.173683166503906,10.36328125C19.408058166503906,10.12890625,19.732276916503906,9.998046875,20.064308166503906,9.998046875C20.396339416503906,9.998046875,20.714698791503906,10.12890625,20.951026916503906,10.36328125L28.474464416503906,17.86328125C28.962745666503906,18.3515625,28.962745666503906,19.146484375,28.474464416503906,19.634765625C27.984230041503906,20.123046875,27.185401916503906,20.123046875,26.697120666503906,19.634765625L21.318214416503906,14.267578125L21.318214416503906,36.25C21.318214416503906,36.939453125,20.753761291503906,37.5,20.064308166503906,37.5C19.368995666503906,37.5,18.810401916503906,36.939453125,18.810401916503906,36.25L18.810401916503906,14.267578125L13.425637245178223,19.634765625C12.935402870178223,20.123046875,12.138527870178223,20.123046875,11.648293495178223,19.634765625C11.158059120178223,19.146484375,11.158059120178223,18.3515625,11.648293495178223,17.86328125Z" stroke="none" stroke-width="0" fill-rule="evenodd" style="fill: rgb(138, 138, 138); fill-opacity: 1;"/></g></g></g></svg>