<svg width="24.077" xmlns="http://www.w3.org/2000/svg" height="24" id="screenshot-9d96cbde-8ad8-80c6-8006-760ae81bdaa0" viewBox="0 0 24.077 24" xmlns:xlink="http://www.w3.org/1999/xlink" fill="none" version="1.1"><g id="shape-9d96cbde-8ad8-80c6-8006-760ae81bdaa0" width="24" height="24" rx="0" ry="0" style="fill: rgb(0, 0, 0);"><g id="shape-9d96cbde-8ad8-80c6-8006-760ae81bdaaf" style="display: none;"><g class="fills" id="fills-9d96cbde-8ad8-80c6-8006-760ae81bdaaf"><rect width="24.077170418004243" height="24" x="0" stroke-linejoin="round" transform="matrix(1.000000, 0.000000, 0.000000, 1.000000, 0.000000, 0.000000)" style="fill: none;" ry="0" fill="none" stroke-linecap="round" rx="0" y="0"/></g><g fill="none" stroke-linejoin="round" stroke-linecap="round" id="strokes-2f881911-f168-801e-8006-7de32d43c69d-9d96cbde-8ad8-80c6-8006-760ae81bdaaf" class="strokes"><g class="inner-stroke-shape" transform="matrix(1.000000, 0.000000, 0.000000, 1.000000, 0.000000, 0.000000)"><defs><clipPath id="inner-stroke-render-2-9d96cbde-8ad8-80c6-8006-760ae81bdaaf-0"><use href="#stroke-shape-render-2-9d96cbde-8ad8-80c6-8006-760ae81bdaaf-0"/></clipPath><rect rx="0" ry="0" x="0" y="0" width="24.077170418004243" height="24" id="stroke-shape-render-2-9d96cbde-8ad8-80c6-8006-760ae81bdaaf-0" style="fill: none; stroke-width: 4; stroke: rgb(72, 72, 72);"/></defs><use href="#stroke-shape-render-2-9d96cbde-8ad8-80c6-8006-760ae81bdaaf-0" clip-path="url('#inner-stroke-render-2-9d96cbde-8ad8-80c6-8006-760ae81bdaaf-0')"/></g></g></g><g id="shape-9d96cbde-8ad8-80c6-8006-760ae81bdab0"><g class="fills" id="fills-9d96cbde-8ad8-80c6-8006-760ae81bdab0"><path d="M13.043157577514648,2L6.01971960067749,2C4.91229772567749,2,4.01190710067749,2.89453125,4.01190710067749,4L4.01190710067749,20C4.01190710067749,21.10546875,4.91229772567749,22,6.01971960067749,22L18.05878257751465,22C19.16815757751465,22,20.06464195251465,21.10546875,20.06464195251465,20L20.06464195251465,9Z" fill="none" stroke-linejoin="round" stroke-linecap="round" style="fill: none;"/></g><g fill="none" stroke-linejoin="round" stroke-linecap="round" id="strokes-2f881911-f168-801e-8006-7de32d44ee32-9d96cbde-8ad8-80c6-8006-760ae81bdab0" class="strokes"><g class="inner-stroke-shape"><defs><clipPath id="inner-stroke-render-3-9d96cbde-8ad8-80c6-8006-760ae81bdab0-0"><use href="#stroke-shape-render-3-9d96cbde-8ad8-80c6-8006-760ae81bdab0-0"/></clipPath><path d="M13.043157577514648,2L6.01971960067749,2C4.91229772567749,2,4.01190710067749,2.89453125,4.01190710067749,4L4.01190710067749,20C4.01190710067749,21.10546875,4.91229772567749,22,6.01971960067749,22L18.05878257751465,22C19.16815757751465,22,20.06464195251465,21.10546875,20.06464195251465,20L20.06464195251465,9Z" id="stroke-shape-render-3-9d96cbde-8ad8-80c6-8006-760ae81bdab0-0" style="fill: none; stroke-width: 4; stroke: rgb(72, 72, 72);"/></defs><use href="#stroke-shape-render-3-9d96cbde-8ad8-80c6-8006-760ae81bdab0-0" clip-path="url('#inner-stroke-render-3-9d96cbde-8ad8-80c6-8006-760ae81bdab0-0')"/></g></g></g><g id="shape-9d96cbde-8ad8-80c6-8006-760ae81bdab1"><g class="fills" id="fills-9d96cbde-8ad8-80c6-8006-760ae81bdab1"><path d="M12.539251327514648,3L12.539251327514648,9.5L19.06073570251465,9.5" fill="none" stroke-linejoin="round" stroke-linecap="round" style="fill: none;"/></g><g fill="none" stroke-linejoin="round" stroke-linecap="round" id="strokes-2f881911-f168-801e-8006-7de32d45655e-9d96cbde-8ad8-80c6-8006-760ae81bdab1" class="strokes"><g class="stroke-shape"><path d="M12.539251327514648,3L12.539251327514648,9.5L19.06073570251465,9.5" style="fill: none; stroke-width: 2; stroke: rgb(72, 72, 72);"/></g></g></g></g></svg>