<?xml version="1.0" encoding="UTF-8"?>
<svg id="Capa_2" data-name="Capa 2" xmlns="http://www.w3.org/2000/svg" xmlns:xlink="http://www.w3.org/1999/xlink" viewBox="0 0 1920 1080">
  <defs>
    <style>
      .cls-1 {
        opacity: .4;
      }

      .cls-1, .cls-2, .cls-3, .cls-4, .cls-5, .cls-6, .cls-7, .cls-8, .cls-9, .cls-10, .cls-11, .cls-12, .cls-13 {
        stroke-width: 0px;
      }

      .cls-1, .cls-2, .cls-3, .cls-4, .cls-6, .cls-7, .cls-8, .cls-9, .cls-10, .cls-11, .cls-12, .cls-13 {
        fill: #fff;
      }

      .cls-2 {
        opacity: .45;
      }

      .cls-14, .cls-7 {
        opacity: .6;
      }

      .cls-3 {
        opacity: .5;
      }

      .cls-4 {
        opacity: .8;
      }

      .cls-5 {
        fill: none;
      }

      .cls-15 {
        clip-path: url(#clippath);
      }

      .cls-8 {
        opacity: .65;
      }

      .cls-9 {
        opacity: .1;
      }

      .cls-10 {
        opacity: .75;
      }

      .cls-11 {
        opacity: .2;
      }

      .cls-12 {
        opacity: .3;
      }

      .cls-13 {
        opacity: 0;
      }
    </style>
    <clipPath id="clippath">
      <rect class="cls-5" width="1920" height="1080"/>
    </clipPath>
  </defs>
  <g id="OBJECTS">
    <g class="cls-15">
      <g class="cls-14">
        <polygon class="cls-4" points="1920 359.33 1920 479.12 1839.76 419.22 1920 359.33"/>
        <g>
          <polygon class="cls-6" points="127.93 0 -.02 59.92 -.02 -59.86 127.93 0"/>
          <polygon class="cls-7" points="383.75 0 255.8 59.92 255.8 -59.86 383.75 0"/>
          <polygon class="cls-10" points="255.8 -59.86 255.8 59.92 127.93 0 255.8 -59.86"/>
          <polygon class="cls-6" points="639.57 0 481.55 56.97 511.62 -59.86 639.57 0"/>
          <polygon class="cls-6" points="511.62 -59.86 481.55 56.97 383.75 0 511.62 -59.86"/>
          <polygon class="cls-6" points="895.39 0 793.33 10.02 767.44 -59.86 895.39 0"/>
          <polygon class="cls-11" points="767.44 -59.86 793.33 10.02 639.57 0 767.44 -59.86"/>
          <polygon class="cls-6" points="1151.21 0 1045.64 89.55 1023.26 -59.86 1151.21 0"/>
          <polygon class="cls-8" points="1023.26 -59.86 1045.64 89.55 895.39 0 1023.26 -59.86"/>
          <polygon class="cls-6" points="1279.08 -59.86 1248.2 89.52 1151.21 0 1279.08 -59.86"/>
          <polygon class="cls-10" points="127.89 0 63.95 130.84 .01 59.86 127.89 0"/>
          <polygon class="cls-11" points="255.84 59.86 255.84 179.65 63.95 130.84 255.84 59.86"/>
          <polygon class="cls-9" points="255.84 59.86 63.95 130.84 127.89 0 255.84 59.86"/>
          <polygon class="cls-12" points="255.84 179.65 127.89 239.57 63.95 130.84 255.84 179.65"/>
          <polygon class="cls-7" points="63.95 130.84 127.89 239.57 .01 179.65 63.95 130.84"/>
          <polygon class="cls-9" points="63.95 130.84 .01 179.65 .01 59.86 63.95 130.84"/>
          <polygon class="cls-3" points="383.71 0 355.43 158.41 255.84 59.86 383.71 0"/>
          <polygon class="cls-7" points="481.59 56.91 511.66 179.65 355.43 158.41 481.59 56.91"/>
          <polygon class="cls-4" points="481.59 56.91 355.43 158.41 383.71 0 481.59 56.91"/>
          <polygon class="cls-10" points="511.66 179.65 383.71 239.57 355.43 158.41 511.66 179.65"/>
          <polygon class="cls-8" points="355.43 158.41 383.71 239.57 255.84 179.65 355.43 158.41"/>
          <polygon class="cls-12" points="355.43 158.41 255.84 179.65 255.84 59.86 355.43 158.41"/>
          <polygon class="cls-7" points="639.53 0 680.94 113.88 481.59 56.91 639.53 0"/>
          <polygon class="cls-6" points="793.37 9.96 819.05 179.64 680.94 113.88 793.37 9.96"/>
          <polygon class="cls-3" points="793.37 9.96 680.94 113.88 639.53 0 793.37 9.96"/>
          <polygon class="cls-4" points="819.05 179.64 639.53 239.57 680.94 113.88 819.05 179.64"/>
          <polygon class="cls-10" points="680.94 113.88 639.53 239.57 511.66 179.65 680.94 113.88"/>
          <polygon class="cls-8" points="680.94 113.88 511.66 179.65 481.59 56.91 680.94 113.88"/>
          <polygon class="cls-8" points="895.35 0 895.35 119.79 793.37 9.96 895.35 0"/>
          <polygon class="cls-6" points="1045.67 89.49 987.74 179.62 895.35 119.79 1045.67 89.49"/>
          <polygon class="cls-4" points="1045.67 89.49 895.35 119.79 895.35 0 1045.67 89.49"/>
          <polygon class="cls-7" points="987.74 179.62 895.35 239.57 895.35 119.79 987.74 179.62"/>
          <polygon class="cls-6" points="895.35 119.79 895.35 239.57 819.05 179.64 895.35 119.79"/>
          <polygon class="cls-9" points="895.35 119.79 819.05 179.64 793.37 9.96 895.35 119.79"/>
          <polygon class="cls-6" points="1151.17 0 1151.17 119.79 1045.67 89.49 1151.17 0"/>
          <polygon class="cls-6" points="1248.24 89.46 1279.12 179.65 1151.17 119.79 1248.24 89.46"/>
          <polygon class="cls-4" points="1248.24 89.46 1151.17 119.79 1151.17 0 1248.24 89.46"/>
          <polygon class="cls-6" points="1279.12 179.65 1176.36 199.01 1151.17 119.79 1279.12 179.65"/>
          <polygon class="cls-6" points="1151.17 119.79 1176.36 199.01 987.74 179.62 1151.17 119.79"/>
          <polygon class="cls-9" points="1151.17 119.79 987.74 179.62 1045.67 89.49 1151.17 119.79"/>
          <polygon class="cls-3" points="127.93 239.54 127.93 359.33 -38.06 292.29 127.93 239.54"/>
          <polygon class="cls-10" points="127.93 239.54 -38.06 292.29 -.02 179.68 127.93 239.54"/>
          <polygon class="cls-9" points="127.93 359.33 -.02 419.25 -38.06 292.29 127.93 359.33"/>
          <polygon class="cls-11" points="255.8 179.68 229.63 329.48 127.93 239.54 255.8 179.68"/>
          <polygon class="cls-10" points="383.75 239.54 383.73 315.34 229.63 329.48 383.75 239.54"/>
          <polygon class="cls-9" points="383.75 239.54 229.63 329.48 255.8 179.68 383.75 239.54"/>
          <polygon class="cls-12" points="383.73 315.34 229.61 460.61 229.63 329.48 383.73 315.34"/>
          <polygon class="cls-12" points="229.63 329.48 229.61 460.61 127.93 359.33 229.63 329.48"/>
          <polygon class="cls-3" points="229.63 329.48 127.93 359.33 127.93 239.54 229.63 329.48"/>
          <polygon class="cls-8" points="511.62 179.68 546.29 334.43 383.75 239.54 511.62 179.68"/>
          <polygon class="cls-10" points="639.57 239.54 639.57 359.33 546.29 334.43 639.57 239.54"/>
          <polygon class="cls-3" points="639.57 239.54 546.29 334.43 511.62 179.68 639.57 239.54"/>
          <polygon class="cls-12" points="639.57 359.33 511.62 419.25 546.29 334.43 639.57 359.33"/>
          <polygon class="cls-7" points="546.29 334.43 511.62 419.25 383.73 315.34 546.29 334.43"/>
          <polygon class="cls-10" points="546.29 334.43 383.73 315.34 383.75 239.54 546.29 334.43"/>
          <polygon class="cls-7" points="819.01 179.67 740.84 345.03 639.57 239.54 819.01 179.67"/>
          <polygon class="cls-12" points="895.39 239.54 917.54 329.48 740.84 345.03 895.39 239.54"/>
          <polygon class="cls-10" points="895.39 239.54 740.84 345.03 819.01 179.67 895.39 239.54"/>
          <polygon class="cls-4" points="917.54 329.48 767.44 419.25 740.84 345.03 917.54 329.48"/>
          <polygon class="cls-7" points="740.84 345.03 767.44 419.25 639.57 359.33 740.84 345.03"/>
          <polygon class="cls-9" points="740.84 345.03 639.57 359.33 639.57 239.54 740.84 345.03"/>
          <polygon class="cls-4" points="987.7 179.65 1023.26 299.47 895.39 239.54 987.7 179.65"/>
          <polygon class="cls-10" points="1176.4 198.98 1142.45 387.97 1023.26 299.47 1176.4 198.98"/>
          <polygon class="cls-3" points="1176.4 198.98 1023.26 299.47 987.7 179.65 1176.4 198.98"/>
          <polygon class="cls-3" points="1142.45 387.97 964.58 460.64 1023.26 299.47 1142.45 387.97"/>
          <polygon class="cls-6" points="1023.26 299.47 964.58 460.64 917.54 329.48 1023.26 299.47"/>
          <polygon class="cls-6" points="1023.26 299.47 917.54 329.48 895.39 239.54 1023.26 299.47"/>
          <polygon class="cls-9" points="1279.08 179.68 1279.08 299.47 1176.4 198.98 1279.08 179.68"/>
          <polygon class="cls-4" points="1279.08 299.47 1304.42 460.58 1142.45 387.97 1279.08 299.47"/>
          <polygon class="cls-8" points="1279.08 299.47 1142.45 387.97 1176.4 198.98 1279.08 299.47"/>
          <polygon class="cls-3" points="127.89 359.33 127.89 479.12 .01 419.19 127.89 359.33"/>
          <polygon class="cls-10" points="229.65 460.55 255.84 538.98 127.89 479.12 229.65 460.55"/>
          <polygon class="cls-10" points="229.65 460.55 127.89 479.12 127.89 359.33 229.65 460.55"/>
          <polygon class="cls-9" points="255.84 538.98 95.25 627.12 127.89 479.12 255.84 538.98"/>
          <polygon class="cls-4" points="127.89 479.12 95.25 627.12 .01 538.98 127.89 479.12"/>
          <polygon class="cls-10" points="127.89 479.12 .01 538.98 .01 419.19 127.89 479.12"/>
          <polygon class="cls-10" points="383.69 315.34 410.34 450.01 229.65 460.55 383.69 315.34"/>
          <polygon class="cls-9" points="511.66 419.19 522.8 574.04 410.34 450.01 511.66 419.19"/>
          <polygon class="cls-3" points="511.66 419.19 410.34 450.01 383.69 315.34 511.66 419.19"/>
          <polygon class="cls-4" points="522.8 574.04 305.72 598.89 410.34 450.01 522.8 574.04"/>
          <polygon class="cls-2" points="410.34 450.01 305.72 598.89 255.84 538.98 410.34 450.01"/>
          <polygon class="cls-7" points="410.34 450.01 255.84 538.98 229.65 460.55 410.34 450.01"/>
          <polygon class="cls-4" points="639.53 359.33 674.41 434.1 511.66 419.19 639.53 359.33"/>
          <polygon class="cls-6" points="767.48 419.19 767.48 538.98 674.41 434.1 767.48 419.19"/>
          <polygon class="cls-7" points="767.48 419.19 674.41 434.1 639.53 359.33 767.48 419.19"/>
          <polygon class="cls-4" points="767.48 538.98 639.53 598.9 674.41 434.1 767.48 538.98"/>
          <polygon class="cls-3" points="674.41 434.1 639.53 598.9 522.8 574.04 674.41 434.1"/>
          <polygon class="cls-7" points="674.41 434.1 522.8 574.04 511.66 419.19 674.41 434.1"/>
          <polygon class="cls-9" points="917.5 329.48 842.5 464.85 767.48 419.19 917.5 329.48"/>
          <polygon class="cls-7" points="964.62 460.58 1023.3 538.98 842.5 464.85 964.62 460.58"/>
          <polygon class="cls-10" points="964.62 460.58 842.5 464.85 917.5 329.48 964.62 460.58"/>
          <polygon class="cls-6" points="1023.3 538.98 917.52 563.49 842.5 464.85 1023.3 538.98"/>
          <polygon class="cls-9" points="842.5 464.85 917.52 563.49 767.48 538.98 842.5 464.85"/>
          <polygon class="cls-12" points="842.5 464.85 767.48 538.98 767.48 419.19 842.5 464.85"/>
          <polygon class="cls-8" points="1142.41 387.97 1151.17 479.12 964.62 460.58 1142.41 387.97"/>
          <polygon class="cls-6" points="1304.45 460.52 1279.12 538.98 1151.17 479.12 1304.45 460.52"/>
          <polygon class="cls-6" points="1304.45 460.52 1151.17 479.12 1142.41 387.97 1304.45 460.52"/>
          <polygon class="cls-3" points="1279.12 538.98 1215.13 598.87 1151.17 479.12 1279.12 538.98"/>
          <polygon class="cls-4" points="1151.17 479.12 1215.13 598.87 1023.3 538.98 1151.17 479.12"/>
          <polygon class="cls-12" points="1151.17 479.12 1023.3 538.98 964.62 460.58 1151.17 479.12"/>
          <polygon class="cls-9" points="95.28 627.09 75.71 739.46 -22.23 598.9 95.28 627.09"/>
          <polygon class="cls-3" points="95.28 627.09 -22.23 598.9 -.02 539.01 95.28 627.09"/>
          <polygon class="cls-10" points="75.71 739.46 -79.93 734.24 -22.23 598.9 75.71 739.46"/>
          <polygon class="cls-10" points="255.8 539.01 255.8 658.8 95.28 627.09 255.8 539.01"/>
          <polygon class="cls-7" points="305.75 598.86 367.23 745.51 255.8 658.8 305.75 598.86"/>
          <polygon class="cls-3" points="305.75 598.86 255.8 658.8 255.8 539.01 305.75 598.86"/>
          <polygon class="cls-13" points="367.23 745.51 255.8 778.58 255.8 658.8 367.23 745.51"/>
          <polygon class="cls-12" points="255.8 658.8 255.8 778.58 75.71 739.46 255.8 658.8"/>
          <polygon class="cls-10" points="255.8 658.8 75.71 739.46 95.28 627.09 255.8 658.8"/>
          <polygon class="cls-3" points="522.76 574.07 503.39 690.09 305.75 598.86 522.76 574.07"/>
          <polygon class="cls-3" points="639.57 598.87 662.68 677.98 503.39 690.09 639.57 598.87"/>
          <polygon class="cls-12" points="639.57 598.87 503.39 690.09 522.76 574.07 639.57 598.87"/>
          <polygon class="cls-13" points="662.68 677.98 511.6 800.94 503.39 690.09 662.68 677.98"/>
          <polygon class="cls-3" points="503.39 690.09 511.6 800.94 367.23 745.51 503.39 690.09"/>
          <polygon class="cls-12" points="503.39 690.09 367.23 745.51 305.75 598.86 503.39 690.09"/>
          <polygon class="cls-9" points="767.44 539.01 767.44 658.8 639.57 598.87 767.44 539.01"/>
          <polygon class="cls-12" points="917.56 563.47 917.59 754.33 767.44 658.8 917.56 563.47"/>
          <polygon class="cls-8" points="917.56 563.47 767.44 658.8 767.44 539.01 917.56 563.47"/>
          <polygon class="cls-7" points="917.59 754.33 818.99 800.91 767.44 658.8 917.59 754.33"/>
          <polygon class="cls-4" points="767.44 658.8 818.99 800.91 662.68 677.98 767.44 658.8"/>
          <polygon class="cls-2" points="767.44 658.8 662.68 677.98 639.57 598.87 767.44 658.8"/>
          <polygon class="cls-4" points="1023.26 539.01 1057.88 638.43 917.56 563.47 1023.26 539.01"/>
          <polygon class="cls-6" points="1215.16 598.85 1151.21 718.66 1057.88 638.43 1215.16 598.85"/>
          <polygon class="cls-3" points="1215.16 598.85 1057.88 638.43 1023.26 539.01 1215.16 598.85"/>
          <polygon class="cls-12" points="1151.21 718.66 1023.26 778.58 1057.88 638.43 1151.21 718.66"/>
          <polygon class="cls-9" points="1057.88 638.43 1023.26 778.58 917.59 754.33 1057.88 638.43"/>
          <polygon class="cls-10" points="1057.88 638.43 917.59 754.33 917.56 563.47 1057.88 638.43"/>
          <polygon class="cls-6" points="1279.08 539.01 1279.08 658.8 1215.16 598.85 1279.08 539.01"/>
          <polygon class="cls-1" points="1279.08 658.8 1313.57 739.49 1151.21 718.66 1279.08 658.8"/>
          <polygon class="cls-4" points="1279.08 658.8 1151.21 718.66 1215.16 598.85 1279.08 658.8"/>
          <polygon class="cls-10" points="75.67 739.46 127.89 838.45 -79.89 734.18 75.67 739.46"/>
          <polygon class="cls-12" points="255.84 778.53 305.77 906.99 127.89 838.45 255.84 778.53"/>
          <polygon class="cls-7" points="255.84 778.53 127.89 838.45 75.67 739.46 255.84 778.53"/>
          <polygon class="cls-9" points="305.77 906.99 82.17 966.43 127.89 838.45 305.77 906.99"/>
          <polygon class="cls-7" points="127.89 838.45 82.17 966.43 .01 898.31 127.89 838.45"/>
          <polygon class="cls-3" points="127.89 838.45 .01 898.31 -79.89 734.18 127.89 838.45"/>
          <polygon class="cls-9" points="367.2 745.51 383.71 838.45 255.84 778.53 367.2 745.51"/>
          <polygon class="cls-2" points="511.64 800.88 535.87 935.62 383.71 838.45 511.64 800.88"/>
          <polygon class="cls-11" points="511.64 800.88 383.71 838.45 367.2 745.51 511.64 800.88"/>
          <polygon class="cls-3" points="535.87 935.62 383.71 958.23 383.71 838.45 535.87 935.62"/>
          <polygon class="cls-7" points="383.71 838.45 383.71 958.23 305.77 906.99 383.71 838.45"/>
          <polygon class="cls-3" points="383.71 838.45 305.77 906.99 255.84 778.53 383.71 838.45"/>
          <polygon class="cls-9" points="662.64 677.98 662.64 830.67 511.64 800.88 662.64 677.98"/>
          <polygon class="cls-10" points="819.03 800.85 767.48 898.31 662.64 830.67 819.03 800.85"/>
          <polygon class="cls-6" points="819.03 800.85 662.64 830.67 662.64 677.98 819.03 800.85"/>
          <polygon class="cls-7" points="767.48 898.31 639.53 958.23 662.64 830.67 767.48 898.31"/>
          <polygon class="cls-10" points="662.64 830.67 639.53 958.23 535.87 935.62 662.64 830.67"/>
          <polygon class="cls-12" points="662.64 830.67 535.87 935.62 511.64 800.88 662.64 830.67"/>
          <polygon class="cls-4" points="917.56 754.33 895.35 838.45 819.03 800.85 917.56 754.33"/>
          <polygon class="cls-6" points="1023.3 778.53 1057.91 860.34 895.35 838.45 1023.3 778.53"/>
          <polygon class="cls-3" points="1023.3 778.53 895.35 838.45 917.56 754.33 1023.3 778.53"/>
          <polygon class="cls-12" points="1057.91 860.34 946.28 953.7 895.35 838.45 1057.91 860.34"/>
          <polygon class="cls-4" points="895.35 838.45 946.28 953.7 767.48 898.31 895.35 838.45"/>
          <polygon class="cls-9" points="895.35 838.45 767.48 898.31 819.03 800.85 895.35 838.45"/>
          <polygon class="cls-10" points="1151.17 718.66 1151.17 838.45 1023.3 778.53 1151.17 718.66"/>
          <polygon class="cls-12" points="1313.6 739.43 1279.12 898.31 1151.17 838.45 1313.6 739.43"/>
          <polygon class="cls-8" points="1313.6 739.43 1151.17 838.45 1151.17 718.66 1313.6 739.43"/>
          <polygon class="cls-3" points="1279.12 898.31 1151.17 958.23 1151.17 838.45 1279.12 898.31"/>
          <polygon class="cls-10" points="1151.17 838.45 1151.17 958.23 1057.91 860.34 1151.17 838.45"/>
          <polygon class="cls-4" points="1151.17 838.45 1057.91 860.34 1023.3 778.53 1151.17 838.45"/>
          <polygon class="cls-4" points="82.21 966.4 127.93 1077.99 -.02 1018.13 82.21 966.4"/>
          <polygon class="cls-9" points="82.21 966.4 -.02 1018.13 -.02 898.34 82.21 966.4"/>
          <polygon class="cls-6" points="127.93 1077.99 -.02 1137.91 -.02 1018.13 127.93 1077.99"/>
          <polygon class="cls-11" points="305.74 907.02 255.8 1018.13 82.21 966.4 305.74 907.02"/>
          <polygon class="cls-4" points="383.75 958.21 383.75 1077.99 255.8 1018.13 383.75 958.21"/>
          <polygon class="cls-9" points="383.75 958.21 255.8 1018.13 305.74 907.02 383.75 958.21"/>
          <polygon class="cls-6" points="383.75 1077.99 255.8 1137.91 255.8 1018.13 383.75 1077.99"/>
          <polygon class="cls-6" points="255.8 1018.13 255.8 1137.91 127.93 1077.99 255.8 1018.13"/>
          <polygon class="cls-4" points="255.8 1018.13 127.93 1077.99 82.21 966.4 255.8 1018.13"/>
          <polygon class="cls-7" points="535.83 935.65 511.62 1018.13 383.75 958.21 535.83 935.65"/>
          <polygon class="cls-7" points="639.57 958.21 639.57 1077.99 511.62 1018.13 639.57 958.21"/>
          <polygon class="cls-9" points="639.57 958.21 511.62 1018.13 535.83 935.65 639.57 958.21"/>
          <polygon class="cls-6" points="639.57 1077.99 511.62 1137.91 511.62 1018.13 639.57 1077.99"/>
          <polygon class="cls-6" points="511.62 1018.13 511.62 1137.91 383.75 1077.99 511.62 1018.13"/>
          <polygon class="cls-3" points="511.62 1018.13 383.75 1077.99 383.75 958.21 511.62 1018.13"/>
          <polygon class="cls-6" points="1408.39 0 1249.57 89.52 1280.45 -59.86 1408.39 0"/>
          <polygon class="cls-7" points="1664.22 0 1536.27 59.92 1536.27 -59.86 1664.22 0"/>
          <polygon class="cls-10" points="1536.27 -59.86 1536.27 59.92 1408.39 0 1536.27 -59.86"/>
          <polygon class="cls-6" points="1920.04 0 1792.09 59.92 1792.09 -59.86 1920.04 0"/>
          <polygon class="cls-6" points="1792.09 -59.86 1792.09 59.92 1664.22 0 1792.09 -59.86"/>
          <polygon class="cls-10" points="1408.36 0 1408.36 119.79 1249.61 89.46 1408.36 0"/>
          <polygon class="cls-11" points="1536.31 59.86 1521.54 202.98 1408.36 119.79 1536.31 59.86"/>
          <polygon class="cls-9" points="1536.31 59.86 1408.36 119.79 1408.36 0 1536.31 59.86"/>
          <polygon class="cls-12" points="1521.54 202.98 1408.36 239.57 1408.36 119.79 1521.54 202.98"/>
          <polygon class="cls-7" points="1408.36 119.79 1408.36 239.57 1280.48 179.65 1408.36 119.79"/>
          <polygon class="cls-9" points="1408.36 119.79 1280.48 179.65 1249.61 89.46 1408.36 119.79"/>
          <polygon class="cls-3" points="1664.18 0 1664.18 119.79 1536.31 59.86 1664.18 0"/>
          <polygon class="cls-7" points="1792.13 59.86 1792.13 179.65 1664.18 119.79 1792.13 59.86"/>
          <polygon class="cls-4" points="1792.13 59.86 1664.18 119.79 1664.18 0 1792.13 59.86"/>
          <polygon class="cls-10" points="1792.13 179.65 1717.57 239.59 1664.18 119.79 1792.13 179.65"/>
          <polygon class="cls-8" points="1664.18 119.79 1717.57 239.59 1521.54 202.98 1664.18 119.79"/>
          <polygon class="cls-12" points="1664.18 119.79 1521.54 202.98 1536.31 59.86 1664.18 119.79"/>
          <polygon class="cls-7" points="1920 0 1920 119.79 1792.13 59.86 1920 0"/>
          <polygon class="cls-10" points="1920 119.79 1920 239.57 1792.13 179.65 1920 119.79"/>
          <polygon class="cls-8" points="1920 119.79 1792.13 179.65 1792.13 59.86 1920 119.79"/>
          <polygon class="cls-3" points="1408.39 239.54 1464.98 359.33 1280.45 299.47 1408.39 239.54"/>
          <polygon class="cls-10" points="1408.39 239.54 1280.45 299.47 1280.45 179.68 1408.39 239.54"/>
          <polygon class="cls-9" points="1464.98 359.33 1305.78 460.58 1280.45 299.47 1464.98 359.33"/>
          <polygon class="cls-11" points="1521.5 203.01 1536.27 299.47 1408.39 239.54 1521.5 203.01"/>
          <polygon class="cls-10" points="1717.61 239.56 1664.22 359.33 1536.27 299.47 1717.61 239.56"/>
          <polygon class="cls-9" points="1717.61 239.56 1536.27 299.47 1521.5 203.01 1717.61 239.56"/>
          <polygon class="cls-12" points="1664.22 359.33 1536.27 419.25 1536.27 299.47 1664.22 359.33"/>
          <polygon class="cls-12" points="1536.27 299.47 1536.27 419.25 1464.98 359.33 1536.27 299.47"/>
          <polygon class="cls-3" points="1536.27 299.47 1464.98 359.33 1408.39 239.54 1536.27 299.47"/>
          <polygon class="cls-8" points="1792.09 179.68 1792.09 299.47 1717.61 239.56 1792.09 179.68"/>
          <polygon class="cls-10" points="1920.04 239.54 1920.04 359.33 1792.09 299.47 1920.04 239.54"/>
          <polygon class="cls-3" points="1920.04 239.54 1792.09 299.47 1792.09 179.68 1920.04 239.54"/>
          <polygon class="cls-12" points="1920.04 359.33 1839.72 419.28 1792.09 299.47 1920.04 359.33"/>
          <polygon class="cls-7" points="1792.09 299.47 1839.72 419.28 1664.22 359.33 1792.09 299.47"/>
          <polygon class="cls-10" points="1792.09 299.47 1664.22 359.33 1717.61 239.56 1792.09 299.47"/>
          <polygon class="cls-3" points="1464.94 359.33 1408.36 479.12 1305.82 460.52 1464.94 359.33"/>
          <polygon class="cls-10" points="1536.31 419.19 1536.31 538.98 1408.36 479.12 1536.31 419.19"/>
          <polygon class="cls-10" points="1536.31 419.19 1408.36 479.12 1464.94 359.33 1536.31 419.19"/>
          <polygon class="cls-9" points="1536.31 538.98 1408.36 598.9 1408.36 479.12 1536.31 538.98"/>
          <polygon class="cls-4" points="1408.36 479.12 1408.36 598.9 1280.48 538.98 1408.36 479.12"/>
          <polygon class="cls-10" points="1408.36 479.12 1280.48 538.98 1305.82 460.52 1408.36 479.12"/>
          <polygon class="cls-10" points="1664.18 359.33 1645.71 433.55 1536.31 419.19 1664.18 359.33"/>
          <polygon class="cls-9" points="1839.76 419.22 1792.13 538.98 1645.71 433.55 1839.76 419.22"/>
          <polygon class="cls-3" points="1839.76 419.22 1645.71 433.55 1664.18 359.33 1839.76 419.22"/>
          <polygon class="cls-4" points="1792.13 538.98 1687.51 549.71 1645.71 433.55 1792.13 538.98"/>
          <polygon class="cls-2" points="1645.71 433.55 1687.51 549.71 1536.31 538.98 1645.71 433.55"/>
          <polygon class="cls-7" points="1645.71 433.55 1536.31 538.98 1536.31 419.19 1645.71 433.55"/>
          <polygon class="cls-3" points="1920 479.12 1920 598.9 1792.13 538.98 1920 479.12"/>
          <polygon class="cls-7" points="1920 479.12 1792.13 538.98 1839.76 419.22 1920 479.12"/>
          <polygon class="cls-9" points="1408.39 598.87 1408.39 718.66 1280.45 658.8 1408.39 598.87"/>
          <polygon class="cls-3" points="1408.39 598.87 1280.45 658.8 1280.45 539.01 1408.39 598.87"/>
          <polygon class="cls-10" points="1408.39 718.66 1314.93 739.49 1280.45 658.8 1408.39 718.66"/>
          <polygon class="cls-10" points="1536.27 539.01 1521.52 690.09 1408.39 598.87 1536.27 539.01"/>
          <polygon class="cls-7" points="1687.54 549.68 1664.22 718.66 1521.52 690.09 1687.54 549.68"/>
          <polygon class="cls-3" points="1687.54 549.68 1521.52 690.09 1536.27 539.01 1687.54 549.68"/>
          <polygon class="cls-13" points="1664.22 718.66 1536.27 778.58 1521.52 690.09 1664.22 718.66"/>
          <polygon class="cls-12" points="1521.52 690.09 1536.27 778.58 1408.39 718.66 1521.52 690.09"/>
          <polygon class="cls-10" points="1521.52 690.09 1408.39 718.66 1408.39 598.87 1521.52 690.09"/>
          <polygon class="cls-3" points="1792.09 539.01 1759.44 708.51 1687.54 549.68 1792.09 539.01"/>
          <polygon class="cls-3" points="1920.04 598.87 1920.04 718.66 1759.44 708.51 1920.04 598.87"/>
          <polygon class="cls-12" points="1920.04 598.87 1759.44 708.51 1792.09 539.01 1920.04 598.87"/>
          <polygon class="cls-13" points="1920.04 718.66 1792.09 778.58 1759.44 708.51 1920.04 718.66"/>
          <polygon class="cls-3" points="1759.44 708.51 1792.09 778.58 1664.22 718.66 1759.44 708.51"/>
          <polygon class="cls-12" points="1759.44 708.51 1664.22 718.66 1687.54 549.68 1759.44 708.51"/>
          <polygon class="cls-10" points="1408.36 718.66 1408.36 838.45 1314.97 739.43 1408.36 718.66"/>
          <polygon class="cls-12" points="1536.31 778.53 1536.31 898.31 1408.36 838.45 1536.31 778.53"/>
          <polygon class="cls-1" points="1536.31 778.53 1408.36 838.45 1408.36 718.66 1536.31 778.53"/>
          <polygon class="cls-9" points="1536.31 898.31 1385.36 976.9 1408.36 838.45 1536.31 898.31"/>
          <polygon class="cls-7" points="1408.36 838.45 1385.36 976.9 1280.48 898.31 1408.36 838.45"/>
          <polygon class="cls-3" points="1408.36 838.45 1280.48 898.31 1314.97 739.43 1408.36 838.45"/>
          <polygon class="cls-9" points="1664.18 718.66 1611.91 868.25 1536.31 778.53 1664.18 718.66"/>
          <polygon class="cls-2" points="1792.13 778.53 1742.75 894.44 1611.91 868.25 1792.13 778.53"/>
          <polygon class="cls-11" points="1792.13 778.53 1611.91 868.25 1664.18 718.66 1792.13 778.53"/>
          <polygon class="cls-3" points="1742.75 894.44 1664.18 958.23 1611.91 868.25 1742.75 894.44"/>
          <polygon class="cls-7" points="1611.91 868.25 1664.18 958.23 1536.31 898.31 1611.91 868.25"/>
          <polygon class="cls-3" points="1611.91 868.25 1536.31 898.31 1536.31 778.53 1611.91 868.25"/>
          <polygon class="cls-9" points="1920 718.66 1920 838.45 1792.13 778.53 1920 718.66"/>
          <polygon class="cls-10" points="1920 838.45 1920 958.23 1742.75 894.44 1920 838.45"/>
          <polygon class="cls-12" points="1920 838.45 1742.75 894.44 1792.13 778.53 1920 838.45"/>
          <polygon class="cls-4" points="1385.4 976.87 1408.39 1077.99 1239.21 1018.13 1385.4 976.87"/>
          <polygon class="cls-9" points="1385.4 976.87 1239.21 1018.13 1280.45 898.34 1385.4 976.87"/>
          <polygon class="cls-6" points="1408.39 1077.99 1280.45 1137.91 1239.21 1018.13 1408.39 1077.99"/>
          <polygon class="cls-11" points="1536.27 898.34 1564.66 984.43 1385.4 976.87 1536.27 898.34"/>
          <polygon class="cls-4" points="1664.22 958.21 1664.22 1077.99 1564.66 984.43 1664.22 958.21"/>
          <polygon class="cls-9" points="1664.22 958.21 1564.66 984.43 1536.27 898.34 1664.22 958.21"/>
          <polygon class="cls-6" points="1664.22 1077.99 1536.27 1137.91 1564.66 984.43 1664.22 1077.99"/>
          <polygon class="cls-6" points="1564.66 984.43 1536.27 1137.91 1408.39 1077.99 1564.66 984.43"/>
          <polygon class="cls-4" points="1564.66 984.43 1408.39 1077.99 1385.4 976.87 1564.66 984.43"/>
          <polygon class="cls-7" points="1742.72 894.47 1792.09 1018.13 1664.22 958.21 1742.72 894.47"/>
          <polygon class="cls-7" points="1920.04 958.21 1920.04 1077.99 1792.09 1018.13 1920.04 958.21"/>
          <polygon class="cls-9" points="1920.04 958.21 1792.09 1018.13 1742.72 894.47 1920.04 958.21"/>
          <polygon class="cls-6" points="1920.04 1077.99 1792.09 1137.91 1792.09 1018.13 1920.04 1077.99"/>
          <polygon class="cls-6" points="1792.09 1018.13 1792.09 1137.91 1664.22 1077.99 1792.09 1018.13"/>
          <polygon class="cls-3" points="1792.09 1018.13 1664.22 1077.99 1664.22 958.21 1792.09 1018.13"/>
          <polygon class="cls-12" points="767.44 898.34 804.99 984.43 639.57 958.21 767.44 898.34"/>
          <polygon class="cls-9" points="946.32 953.68 895.39 1077.99 804.99 984.43 946.32 953.68"/>
          <polygon class="cls-10" points="946.32 953.68 804.99 984.43 767.44 898.34 946.32 953.68"/>
          <polygon class="cls-6" points="895.39 1077.99 767.44 1137.91 804.99 984.43 895.39 1077.99"/>
          <polygon class="cls-6" points="804.99 984.43 767.44 1137.91 639.57 1077.99 804.99 984.43"/>
          <polygon class="cls-6" points="804.99 984.43 639.57 1077.99 639.57 958.21 804.99 984.43"/>
          <polygon class="cls-4" points="1057.88 860.36 1023.26 1018.13 946.32 953.68 1057.88 860.36"/>
          <polygon class="cls-8" points="1151.21 958.21 1151.21 1077.99 1023.26 1018.13 1151.21 958.21"/>
          <polygon class="cls-3" points="1151.21 958.21 1023.26 1018.13 1057.88 860.36 1151.21 958.21"/>
          <polygon class="cls-6" points="1151.21 1077.99 1023.26 1137.91 1023.26 1018.13 1151.21 1077.99"/>
          <polygon class="cls-6" points="1023.26 1018.13 1023.26 1137.91 895.39 1077.99 1023.26 1018.13"/>
          <polygon class="cls-4" points="1023.26 1018.13 895.39 1077.99 946.32 953.68 1023.26 1018.13"/>
          <polygon class="cls-1" points="1279.08 898.34 1237.84 1018.13 1151.21 958.21 1279.08 898.34"/>
          <polygon class="cls-6" points="1237.84 1018.13 1279.08 1137.91 1151.21 1077.99 1237.84 1018.13"/>
          <polygon class="cls-9" points="1237.84 1018.13 1151.21 1077.99 1151.21 958.21 1237.84 1018.13"/>
        </g>
      </g>
    </g>
  </g>
</svg>