<svg width="105" xmlns="http://www.w3.org/2000/svg" height="104.42" id="screenshot-99d11216-2a29-80be-8006-7116f4428aa5" viewBox="0 0 105 104.42" xmlns:xlink="http://www.w3.org/1999/xlink" fill="none" version="1.1"><g id="shape-99d11216-2a29-80be-8006-7116f4428aa5" width="48" height="48" rx="0" ry="0" style="fill: rgb(0, 0, 0);"><g id="shape-99d11216-2a29-80be-8006-7116f4428aa7" style="display: none;"><g class="fills" id="fills-99d11216-2a29-80be-8006-7116f4428aa7"><rect width="105" height="104.41988950276209" x="0" transform="matrix(1.000000, 0.000000, 0.000000, 1.000000, 0.000000, 0.000000)" style="fill: none;" ry="0" fill="none" rx="0" y="0"/></g></g><g id="shape-99d11216-2a29-80be-8006-7116f4428aa8"><g class="fills" id="fills-99d11216-2a29-80be-8006-7116f4428aa8"><path d="M48.43359375,55.90955352783203C51.802734375,49.85877227783203,58.275390625,46.29236602783203,62.0390625,40.94080352783203C66.01953125,35.32752227783203,63.7890625,24.8431453704834,52.5,24.8431453704834C45.10546875,24.8431453704834,41.474609375,30.4134578704834,39.943359375,35.02478790283203L28.61328125,30.2806453704834C31.71875,21.0150203704834,40.162109375,13.052129745483398,52.455078125,13.052129745483398C62.736328125,13.052129745483398,69.783203125,17.7064266204834,73.369140625,23.5384578704834C76.431640625,28.5423641204834,78.2265625,37.89588165283203,73.5,44.85681915283203C68.25,52.55799102783203,63.220703125,54.90564727783203,60.50390625,59.86658477783203C59.4140625,61.86658477783203,58.974609375,63.17517852783203,58.974609375,69.61267852783203L46.330078125,69.61267852783203C46.287109375,66.22010040283203,45.76171875,60.69470977783203,48.43359375,55.90955352783203M61.251953125,87.01502227783203C61.251953125,91.80408477783203,57.3125,95.71814727783203,52.5,95.71814727783203C47.6875,95.71814727783203,43.75,91.80408477783203,43.75,87.01502227783203C43.75,82.22986602783203,47.6875,78.31385040283203,52.5,78.31385040283203C57.3125,78.31385040283203,61.251953125,82.22986602783203,61.251953125,87.01502227783203" style="fill: rgb(5, 8, 53); fill-opacity: 1;"/></g></g></g></svg>