<?xml version="1.0" encoding="UTF-8"?><svg xmlns="http://www.w3.org/2000/svg" viewBox="0 0 674.91 159.75"><defs><style>.i{fill:#124789;}.j{fill:#51abcc;}.k{fill:#2977aa;}.l{fill:#b7e0ed;}</style></defs><g id="a"/><g id="b"><g id="c"><g><path class="i" d="M7.66,114.91V30.35H24.97V100.55H61.47v14.36H7.66Z"/><path class="i" d="M79.76,43.17c-2.57,0-4.77-.85-6.58-2.55-1.82-1.7-2.72-3.76-2.72-6.19s.91-4.48,2.72-6.19c1.82-1.7,4.01-2.55,6.58-2.55s4.78,.85,6.61,2.55c1.83,1.7,2.75,3.77,2.75,6.19s-.92,4.48-2.75,6.19c-1.84,1.7-4.04,2.55-6.61,2.55Zm-8.51,71.74V51.46h17.03v63.45h-17.03Z"/><path class="i" d="M138.27,115.99c-3.44,0-6.36-.59-8.74-1.76-2.38-1.17-4.32-2.62-5.82-4.34-1.5-1.72-2.64-3.43-3.43-5.14h-.79v10.16h-16.74V30.35h17.03v31.78h.51c.79-1.66,1.92-3.39,3.38-5.16,1.46-1.78,3.38-3.27,5.76-4.48,2.38-1.21,5.37-1.82,8.97-1.82,4.69,0,8.99,1.21,12.88,3.63,3.9,2.42,7.01,6.05,9.34,10.9,2.33,4.84,3.49,10.88,3.49,18.11s-1.13,12.99-3.41,17.85c-2.27,4.86-5.35,8.55-9.25,11.07-3.9,2.52-8.29,3.77-13.17,3.77Zm-5.22-13.68c2.95,0,5.44-.81,7.46-2.44,2.02-1.63,3.56-3.88,4.6-6.75,1.04-2.88,1.56-6.17,1.56-9.88s-.52-6.98-1.56-9.82c-1.04-2.84-2.56-5.07-4.57-6.7-2.01-1.63-4.5-2.44-7.49-2.44s-5.39,.79-7.43,2.35c-2.04,1.57-3.59,3.77-4.65,6.58-1.06,2.82-1.59,6.16-1.59,10.02s.54,7.16,1.62,10.02c1.08,2.86,2.64,5.08,4.68,6.67s4.5,2.38,7.38,2.38Z"/><path class="i" d="M204.67,116.16c-6.47,0-12.05-1.32-16.74-3.97-4.69-2.65-8.3-6.41-10.81-11.29-2.52-4.88-3.77-10.67-3.77-17.37s1.25-12.28,3.75-17.2c2.5-4.92,6.04-8.76,10.61-11.52,4.58-2.76,9.95-4.14,16.12-4.14,4.16,0,8.04,.66,11.63,1.99s6.75,3.32,9.48,5.99c2.72,2.67,4.85,6.01,6.38,10.02s2.3,8.74,2.3,14.19v4.77h-53.29v-10.67h44.95l-7.95,2.84c0-3.29-.5-6.16-1.5-8.6-1-2.44-2.5-4.33-4.48-5.68-1.99-1.34-4.44-2.01-7.35-2.01s-5.46,.68-7.52,2.04c-2.06,1.36-3.62,3.21-4.68,5.53-1.06,2.33-1.59,4.99-1.59,7.97v7.55c0,3.67,.62,6.75,1.84,9.25s2.95,4.37,5.17,5.62c2.21,1.25,4.8,1.87,7.75,1.87,2,0,3.82-.28,5.45-.85,1.63-.57,3.02-1.41,4.17-2.53,1.15-1.12,2.03-2.49,2.64-4.11l15.44,2.89c-1.02,3.48-2.8,6.54-5.33,9.17-2.54,2.63-5.7,4.66-9.51,6.1s-8.18,2.16-13.14,2.16Z"/><path class="i" d="M245.25,114.91V51.46h16.46v11.07h.68c1.17-3.93,3.13-6.9,5.87-8.91s5.89-3.01,9.45-3.01c.87,0,1.82,.05,2.84,.14s1.91,.24,2.67,.43v15.21c-.76-.26-1.85-.47-3.29-.62s-2.8-.23-4.09-.23c-2.57,0-4.9,.56-6.98,1.67-2.08,1.12-3.7,2.67-4.85,4.65-1.16,1.99-1.73,4.3-1.73,6.95v36.1h-17.03Z"/></g><g><path class="i" d="M314.87,116.27c-4.16,0-7.85-.63-11.07-1.9-3.22-1.27-5.87-3.12-7.95-5.56s-3.5-5.44-4.26-9l7.38-1.76c.91,3.82,2.71,6.67,5.42,8.54s6.16,2.81,10.36,2.81c4.8,0,8.66-1.08,11.55-3.24s4.34-4.84,4.34-8.06c0-2.57-.86-4.71-2.58-6.41-1.72-1.7-4.3-2.97-7.75-3.8l-10.33-2.5c-5.45-1.32-9.53-3.4-12.23-6.21-2.71-2.82-4.06-6.37-4.06-10.64,0-3.56,.96-6.68,2.87-9.36,1.91-2.69,4.54-4.79,7.89-6.3,3.35-1.51,7.16-2.27,11.44-2.27,4.01,0,7.45,.62,10.33,1.84,2.88,1.23,5.25,2.96,7.12,5.19s3.28,4.88,4.23,7.95l-7.04,1.82c-.98-2.91-2.62-5.33-4.91-7.24-2.29-1.91-5.51-2.87-9.68-2.87s-7.66,1-10.39,3.01c-2.72,2.01-4.09,4.6-4.09,7.78,0,2.69,.92,4.88,2.75,6.58,1.83,1.7,4.7,3.03,8.6,3.97l9.71,2.33c5.37,1.33,9.39,3.39,12.06,6.19,2.67,2.8,4,6.3,4,10.5,0,3.63-1,6.85-3.01,9.65-2.01,2.8-4.8,5-8.37,6.58s-7.69,2.38-12.34,2.38Z"/><path class="i" d="M371.34,116.33c-3.86,0-7.37-.74-10.53-2.21-3.16-1.48-5.68-3.65-7.55-6.53-1.87-2.88-2.81-6.36-2.81-10.44,0-3.14,.59-5.78,1.76-7.92,1.17-2.14,2.86-3.9,5.05-5.28,2.19-1.38,4.78-2.47,7.75-3.26,2.97-.79,6.25-1.42,9.85-1.87,3.52-.45,6.51-.84,8.97-1.16,2.46-.32,4.34-.84,5.65-1.56,1.3-.72,1.96-1.87,1.96-3.46v-1.48c0-2.84-.58-5.28-1.73-7.32-1.15-2.04-2.84-3.61-5.05-4.71-2.21-1.1-4.91-1.65-8.09-1.65-2.99,0-5.62,.46-7.89,1.39-2.27,.93-4.15,2.14-5.65,3.63s-2.62,3.13-3.38,4.91l-7.38-2.5c1.4-3.44,3.37-6.21,5.9-8.29s5.39-3.6,8.57-4.57c3.18-.96,6.39-1.45,9.65-1.45,2.5,0,5.07,.33,7.72,.99,2.65,.66,5.11,1.78,7.38,3.35,2.27,1.57,4.1,3.73,5.5,6.47,1.4,2.74,2.1,6.21,2.1,10.41v43.08h-7.55v-10.05h-.57c-.91,1.93-2.25,3.77-4.03,5.53-1.78,1.76-3.96,3.19-6.56,4.29-2.59,1.1-5.61,1.65-9.05,1.65Zm1.14-6.87c3.86,0,7.21-.85,10.04-2.55,2.84-1.7,5.03-3.99,6.58-6.87,1.55-2.88,2.33-6.03,2.33-9.48v-9.02c-.57,.53-1.5,1-2.78,1.42-1.29,.42-2.75,.78-4.4,1.08-1.65,.3-3.3,.57-4.97,.79-1.67,.23-3.12,.42-4.37,.57-3.52,.42-6.54,1.1-9.05,2.04-2.52,.95-4.43,2.23-5.73,3.86-1.3,1.63-1.96,3.69-1.96,6.19s.62,4.69,1.87,6.47c1.25,1.78,2.95,3.14,5.11,4.09,2.16,.95,4.6,1.42,7.32,1.42Z"/><path class="i" d="M426.22,30.35V114.91h-7.72V30.35h7.72Z"/><path class="i" d="M467.37,115.76c-4.28,0-8.05-.9-11.32-2.7-3.27-1.8-5.83-4.43-7.66-7.89-1.84-3.46-2.75-7.69-2.75-12.68V51.46h7.72v40.47c0,5.18,1.46,9.28,4.37,12.29,2.91,3.01,6.81,4.51,11.69,4.51,3.33,0,6.32-.71,8.97-2.13,2.65-1.42,4.74-3.46,6.27-6.13,1.53-2.67,2.3-5.82,2.3-9.45V51.46h7.72v63.45h-7.49v-14.81h1.13c-1.74,5.6-4.48,9.61-8.23,12.03-3.75,2.42-7.98,3.63-12.71,3.63Z"/><path class="i" d="M534.29,116.27c-4.16,0-7.85-.63-11.07-1.9-3.22-1.27-5.87-3.12-7.95-5.56s-3.5-5.44-4.26-9l7.38-1.76c.91,3.82,2.71,6.67,5.42,8.54s6.16,2.81,10.36,2.81c4.8,0,8.66-1.08,11.55-3.24s4.34-4.84,4.34-8.06c0-2.57-.86-4.71-2.58-6.41-1.72-1.7-4.3-2.97-7.75-3.8l-10.33-2.5c-5.45-1.32-9.53-3.4-12.23-6.21-2.71-2.82-4.06-6.37-4.06-10.64,0-3.56,.96-6.68,2.87-9.36,1.91-2.69,4.54-4.79,7.89-6.3,3.35-1.51,7.16-2.27,11.44-2.27,4.01,0,7.45,.62,10.33,1.84,2.88,1.23,5.25,2.96,7.12,5.19s3.28,4.88,4.23,7.95l-7.04,1.82c-.98-2.91-2.62-5.33-4.91-7.24-2.29-1.91-5.51-2.87-9.68-2.87s-7.66,1-10.39,3.01c-2.72,2.01-4.09,4.6-4.09,7.78,0,2.69,.92,4.88,2.75,6.58,1.83,1.7,4.7,3.03,8.6,3.97l9.71,2.33c5.37,1.33,9.39,3.39,12.06,6.19,2.67,2.8,4,6.3,4,10.5,0,3.63-1,6.85-3.01,9.65-2.01,2.8-4.8,5-8.37,6.58s-7.69,2.38-12.34,2.38Z"/></g><g><g id="d"><path class="i" d="M674.91,118.29s-31.95,31.76-101.27,13.09c0,0-20.46-5.87-30.94,4.15-4.15,3.97-11.78,2.54-18.14,4.34,0,0,27.02,3.27,32.17,5.39,5.16,2.11,23.87,14.5,50.46,14.49,18.6,0,42.44-9.46,67.72-41.46Z"/></g><g id="e"><path class="i" d="M595.37,128.76c25.71-10.48,75.46-88.61-26.73-128.76,58.65,54.16,32.76,116.59,26.73,128.76Z"/></g><g id="f"><path class="k" d="M595.37,128.76c40.04-26.39,47.51-74.19,9.69-108.43,62.57,27.63,51.03,89.42-9.69,108.43Z"/></g><g id="g"><path class="j" d="M611.15,127.26c-5.27,1-10.59,1.48-15.78,1.49,40.49-12.84,62.53-46.58,45.41-78.57,35.29,24.59,16.9,69.23-29.63,77.08Z"/></g><g id="h"><path class="l" d="M595.37,128.76c36.33,.9,72.23-25.21,61.93-58.06,22.77,21.93,5.4,69.82-61.93,58.06Z"/></g></g></g></g></svg>