<svg xmlns="http://www.w3.org/2000/svg" viewBox="0 0 229.43 296.57"><defs><style>.cls-1,.cls-2,.cls-4{fill:none;stroke:#050835;stroke-miterlimit:10;}.cls-1{stroke-width:10.01px;}.cls-2{stroke-width:7.66px;}.cls-3{fill:#050835;}.cls-4{stroke-width:6.67px;}</style></defs><g id="Capa_2" data-name="Capa 2"><g id="Capa_1-2" data-name="Capa 1"><rect class="cls-1" x="5.01" y="57.27" width="219.42" height="234.29" rx="25.91"/><path class="cls-2" d="M91,21.34h47.5A11.47,11.47,0,0,1,149.93,32.8V53.48a3.79,3.79,0,0,1-3.79,3.79H83.29a3.79,3.79,0,0,1-3.79-3.79V32.8A11.47,11.47,0,0,1,91,21.34Z"/><path class="cls-3" d="M166.57,152.52H132.19V118.15a6.39,6.39,0,0,0-6.4-6.4h-21.3a6.39,6.39,0,0,0-6.4,6.4v34.37H63.71a6.41,6.41,0,0,0-6.4,6.4v21.31a6.41,6.41,0,0,0,6.4,6.4H98.09V221a6.39,6.39,0,0,0,6.4,6.4h21.3a6.39,6.39,0,0,0,6.4-6.4V186.63h34.38a6.4,6.4,0,0,0,6.39-6.4V158.92A6.4,6.4,0,0,0,166.57,152.52Z"/><path class="cls-4" d="M79.7,3.34h69.44a21.78,21.78,0,0,1,21.78,21.78V57.34a0,0,0,0,1,0,0h-113a0,0,0,0,1,0,0V25.11A21.78,21.78,0,0,1,79.7,3.34Z"/></g></g></svg>