<svg xmlns="http://www.w3.org/2000/svg" viewBox="0 0 182.19 297.68"><defs><style>.cls-1,.cls-2,.cls-3,.cls-4{fill:none;stroke:#f1f4fd;stroke-miterlimit:10;}.cls-1{stroke-width:9.04px;}.cls-2,.cls-3{stroke-linecap:round;}.cls-2{stroke-width:9.09px;}.cls-3,.cls-4{stroke-width:6.06px;}.cls-5{fill:#f1f4fd;}</style></defs><g id="Capa_2" data-name="Capa 2"><g id="Capa_1-2" data-name="Capa 1"><path class="cls-1" d="M4.52,18.27V279.41c0,7.59,6.71,13.75,15,13.75H162.68c8.28,0,15-6.16,15-13.75V18.27c0-7.59-6.71-13.75-15-13.75H19.5C11.23,4.52,4.52,10.68,4.52,18.27Z"/><line class="cls-1" x1="177.67" y1="42.55" x2="7.8" y2="42.55"/><line class="cls-2" x1="71.61" y1="24.21" x2="111.17" y2="24.21"/><line class="cls-1" x1="4.52" y1="250.5" x2="175.73" y2="250.5"/><path class="cls-3" d="M151.45,250.22s1-32.13,0-43.76c-2.16-20.06-26.91-36.38-43.87-44.72"/><path class="cls-3" d="M79.18,161.74c-18.38,8.63-42.84,24.18-45.09,43-1.13,11.56,0,43.42,0,43.42"/><line class="cls-3" x1="92.59" y1="198.56" x2="92.59" y2="250.22"/><path class="cls-4" d="M61,120.08c0-24.68,3.67-44.69,31.82-44.69,25.85.13,31.81,20,31.81,44.69s-14.24,44.69-31.81,44.69S61,144.76,61,120.08Z"/><line class="cls-3" x1="124.63" y1="201.14" x2="124.63" y2="175.38"/><line class="cls-3" x1="57.97" y1="207.2" x2="57.97" y2="175.38"/><circle class="cls-3" cx="56.46" cy="217.8" r="10.61"/><path class="cls-3" d="M134.05,232.2c2.7-3.79,2.7-9.85,2.7-14.4,0-9.2-6.1-16.66-13.63-16.66s-13.64,7.46-13.64,16.66c0,1.52,0,10.61,2,13.82"/><circle class="cls-3" cx="112.51" cy="234.47" r="3.03"/><circle class="cls-3" cx="133.72" cy="234.47" r="3.03"/><path class="cls-4" d="M64,110.23c21.21,3,27.27-3,36.07-12.21,1.53-1.6,4.21-1.06,5.54.69,3,3.89,9.9,11.52,16,11.52"/><ellipse class="cls-5" cx="56.46" cy="128.41" rx="4.55" ry="12.12" transform="translate(-11.82 5.88) rotate(-5.39)"/><path class="cls-3" d="M71.61,167.8s9.09,26.69,21.21,27.27,22.72-27.27,22.72-27.27"/><circle class="cls-5" cx="91.3" cy="271.95" r="9.09"/><ellipse class="cls-5" cx="129.35" cy="127.85" rx="12.12" ry="4.55" transform="translate(-10.1 244.61) rotate(-84.61)"/></g></g></svg>