<svg xmlns="http://www.w3.org/2000/svg" viewBox="0 0 182.56 298.06"><defs><style>.cls-1,.cls-2,.cls-3,.cls-4,.cls-5{fill:none;stroke:#050835;stroke-miterlimit:10;}.cls-1{stroke-width:9.42px;}.cls-2{stroke-width:9.45px;}.cls-3,.cls-4{stroke-linecap:round;}.cls-3{stroke-width:9.09px;}.cls-4,.cls-5{stroke-width:6.06px;}.cls-6{fill:#050835;}</style></defs><g id="Capa_2" data-name="Capa 2"><g id="Capa_1-2" data-name="Capa 1"><path class="cls-1" d="M4.71,18.46V279.6c0,7.59,6.71,13.75,15,13.75H162.87c8.28,0,15-6.16,15-13.75V18.46c0-7.59-6.71-13.75-15-13.75H19.69C11.42,4.71,4.71,10.87,4.71,18.46Z"/><line class="cls-2" x1="177.86" y1="42.74" x2="7.98" y2="42.74"/><line class="cls-3" x1="71.8" y1="24.4" x2="111.36" y2="24.4"/><line class="cls-2" x1="4.71" y1="250.69" x2="175.91" y2="250.69"/><path class="cls-4" d="M151.64,249.41s1-42.13,0-53.76c-2.17-20.06-26.91-36.38-43.88-44.72"/><path class="cls-4" d="M79.37,150.93C61,159.56,36.53,175.11,34.28,194c-1.13,11.56,0,53.42,0,53.42"/><line class="cls-4" x1="92.78" y1="187.74" x2="92.78" y2="249.41"/><path class="cls-5" d="M61.19,109.27c0-24.69,3.67-44.7,31.82-44.7,25.85.14,31.81,20,31.81,44.7S110.58,154,93,154,61.19,134,61.19,109.27Z"/><line class="cls-4" x1="124.82" y1="190.33" x2="124.82" y2="164.57"/><line class="cls-4" x1="58.16" y1="196.39" x2="58.16" y2="164.57"/><circle class="cls-4" cx="56.64" cy="206.99" r="10.61"/><path class="cls-4" d="M134.24,221.39c2.7-3.79,2.7-9.85,2.7-14.4,0-9.2-6.1-16.66-13.63-16.66s-13.64,7.46-13.64,16.66c0,1.52,0,10.61,2,13.82"/><circle class="cls-4" cx="112.7" cy="223.66" r="3.03"/><circle class="cls-4" cx="133.91" cy="223.66" r="3.03"/><path class="cls-4" d="M64.22,99.42c21.21,3,27.27-3,36.07-12.22,1.53-1.59,4.21-1,5.54.7,3,3.88,9.9,11.52,16,11.52"/><ellipse class="cls-6" cx="56.64" cy="117.6" rx="4.55" ry="12.12" transform="translate(-10.8 5.84) rotate(-5.39)"/><path class="cls-4" d="M71.8,157S80.89,183.67,93,184.25,115.73,157,115.73,157"/><circle class="cls-6" cx="91.49" cy="272.14" r="9.09"/><ellipse class="cls-6" cx="129.54" cy="117.04" rx="12.12" ry="4.55" transform="translate(0.84 235) rotate(-84.61)"/></g></g></svg>