<svg xmlns="http://www.w3.org/2000/svg" viewBox="0 0 239.96 296.59"><defs><style>.cls-1{fill:#050835;}.cls-2,.cls-3,.cls-4{fill:none;stroke:#050835;stroke-miterlimit:10;}.cls-2{stroke-width:8.98px;}.cls-3{stroke-width:9.58px;}.cls-4{stroke-linecap:round;stroke-width:9px;}</style></defs><g id="Capa_2" data-name="Capa 2"><g id="Capa_1-2" data-name="Capa 1"><path class="cls-1" d="M165,76.25h-27.1V49.15a5,5,0,0,0-5-5H116a5,5,0,0,0-5,5v27.1H83.87a5,5,0,0,0-5,5V98.09a5,5,0,0,0,5,5H111v27.09a5,5,0,0,0,5,5.05h16.79a5,5,0,0,0,5-5.05V103.14H165a5,5,0,0,0,5.05-5V81.3A5,5,0,0,0,165,76.25Z"/><path class="cls-2" d="M222.84,292.1H17.12A12.63,12.63,0,0,1,4.49,279.47V17.12A12.62,12.62,0,0,1,17.12,4.49H184.5A9.29,9.29,0,0,1,190.85,7l41.68,39a9.3,9.3,0,0,1,2.94,6.8V279.47A12.63,12.63,0,0,1,222.84,292.1Z"/><path class="cls-3" d="M183.31,9V46A9.41,9.41,0,0,0,193,55.16h41.57"/><line class="cls-4" x1="49.86" y1="169.59" x2="196.89" y2="169.59"/><line class="cls-4" x1="49.86" y1="204.35" x2="196.89" y2="204.35"/><line class="cls-4" x1="49.88" y1="239.1" x2="138.63" y2="239.1"/></g></g></svg>