<svg width="24" xmlns="http://www.w3.org/2000/svg" height="24" id="screenshot-b97a0072-36b4-80d4-8006-51fda557c026" viewBox="0 0 24 24" xmlns:xlink="http://www.w3.org/1999/xlink" fill="none" version="1.1"><g id="shape-b97a0072-36b4-80d4-8006-51fda557c026" width="24" height="24" rx="0" ry="0" style="fill: rgb(0, 0, 0);"><g id="shape-b97a0072-36b4-80d4-8006-51fda5594042" style="display: none;"><g class="fills" id="fills-b97a0072-36b4-80d4-8006-51fda5594042"><rect width="24" height="24" x="0" transform="matrix(1.000000, 0.000000, 0.000000, 1.000000, 0.000000, 0.000000)" style="fill: none;" ry="0" fill="none" rx="0" y="0"/></g><g fill="none" id="strokes-6da8991e-8e11-80ff-8006-ad9a35914032-b97a0072-36b4-80d4-8006-51fda5594042" class="strokes"><g class="stroke-shape"><rect rx="0" ry="0" x="0" y="0" transform="matrix(1.000000, 0.000000, 0.000000, 1.000000, 0.000000, 0.000000)" width="24" height="24" style="fill: none; stroke-width: 0; stroke: rgb(85, 85, 255); stroke-opacity: 1;"/></g></g></g><g id="shape-b97a0072-36b4-80d4-8006-51fda5599114"><g class="fills" id="fills-b97a0072-36b4-80d4-8006-51fda5599114"><path d="M20,2C20.55224609375,2,21,2.44775390625,21,3L21,21C21,21.55224609375,20.55224609375,22,20,22L6,22C5.44775390625,22,5,21.55224609375,5,21L5,19L3,19L3,17L5,17L5,15L3,15L3,13L5,13L5,11L3,11L3,9L5,9L5,7L3,7L3,5L5,5L5,3C5,2.44775390625,5.44775390625,2,6,2L20,2ZM19,4L7,4L7,20L19,20L19,4ZM14,8L14,11L17,11L17,13L13.9990234375,13L14,16L12,16L11.9990234375,13L9,13L9,11L12,11L12,8L14,8Z" stroke="none" stroke-width="0" style="fill: rgb(85, 85, 255); fill-opacity: 1;"/></g></g></g></svg>