<svg width="18" xmlns="http://www.w3.org/2000/svg" height="18" id="screenshot-b97a0072-36b4-80d4-8006-51fe4a4ef66b" viewBox="0 0 18 18" xmlns:xlink="http://www.w3.org/1999/xlink" fill="none" version="1.1"><g id="shape-b97a0072-36b4-80d4-8006-51fe4a4ef66b" width="24" height="24" rx="0" ry="0" style="fill: rgb(0, 0, 0);"><g id="shape-b97a0072-36b4-80d4-8006-51fe4a507da6" style="display: none;"><g class="fills" id="fills-b97a0072-36b4-80d4-8006-51fe4a507da6"><rect width="18" height="18" x="0" transform="matrix(1.000000, 0.000000, 0.000000, 1.000000, 0.000000, 0.000000)" style="fill: none;" ry="0" fill="none" rx="0" y="0"/></g><g fill="none" id="strokes-d6d3e2b2-1997-8006-8006-ad9a56fb6689-b97a0072-36b4-80d4-8006-51fe4a507da6" class="strokes"><g class="stroke-shape"><rect rx="0" ry="0" x="0" y="0" transform="matrix(1.000000, 0.000000, 0.000000, 1.000000, 0.000000, 0.000000)" width="18" height="18" style="fill: none; stroke-width: 0; stroke: rgb(186, 28, 130); stroke-opacity: 1;"/></g></g></g><g id="shape-b97a0072-36b4-80d4-8006-51fe4a50a004"><g class="fills" id="fills-b97a0072-36b4-80d4-8006-51fe4a50a004"><path d="M9,18C4.0294189453125,18,0,13.970458984375,0,9C0,4.029541015625,4.0294189453125,0,9,0C13.9705810546875,0,18,4.029541015625,18,9C18,13.970458984375,13.9705810546875,18,9,18M1.125,9C1.125,13.34912109375,4.6507568359375,16.875,9,16.875C11.174560546875,16.875,12.9375,15.112060546875,12.9375,12.9375C12.9375,10.762939453125,11.174560546875,9,9,9C6.825439453125,9,5.0625,7.237060546875,5.0625,5.0625C5.0625,2.887939453125,6.825439453125,1.125,9,1.125C4.6507568359375,1.125,1.125,4.65087890625,1.125,9" stroke="none" stroke-width="0" style="fill: rgb(186, 28, 130); fill-opacity: 1;"/></g></g></g></svg>