<svg width="24" xmlns="http://www.w3.org/2000/svg" height="24" id="screenshot-b97a0072-36b4-80d4-8006-51fccf5fca79" viewBox="0 0 24 24" xmlns:xlink="http://www.w3.org/1999/xlink" fill="none" version="1.1"><g id="shape-b97a0072-36b4-80d4-8006-51fccf5fca79" width="24" class="feather feather-heart" height="24" rx="0" ry="0" style="fill: rgb(0, 0, 0);"><g id="shape-b97a0072-36b4-80d4-8006-51fccf5fca7a" style="display: none;"><g class="fills" id="fills-b97a0072-36b4-80d4-8006-51fccf5fca7a"><rect width="24" height="24" x="0" stroke-linejoin="round" transform="matrix(1.000000, 0.000000, 0.000000, 1.000000, 0.000000, 0.000000)" style="fill: rgb(228, 30, 61); fill-opacity: 1;" ry="0" fill="none" stroke-linecap="round" rx="0" y="0"/></g><g fill="none" stroke-linejoin="round" stroke-linecap="round" id="strokes-4b99f29f-6c71-80a1-8006-ad9a03fffb6b-b97a0072-36b4-80d4-8006-51fccf5fca7a" class="strokes"><g class="inner-stroke-shape" transform="matrix(1.000000, 0.000000, 0.000000, 1.000000, 0.000000, 0.000000)"><defs><clipPath id="inner-stroke-render-2-b97a0072-36b4-80d4-8006-51fccf5fca7a-0"><use href="#stroke-shape-render-2-b97a0072-36b4-80d4-8006-51fccf5fca7a-0"/></clipPath><rect rx="0" ry="0" x="0" y="0" width="24" height="24" id="stroke-shape-render-2-b97a0072-36b4-80d4-8006-51fccf5fca7a-0" style="fill: none; stroke-width: 4; stroke: rgb(228, 30, 61); stroke-opacity: 1;"/></defs><use href="#stroke-shape-render-2-b97a0072-36b4-80d4-8006-51fccf5fca7a-0" clip-path="url('#inner-stroke-render-2-b97a0072-36b4-80d4-8006-51fccf5fca7a-0')"/></g></g></g><g id="shape-b97a0072-36b4-80d4-8006-51fccf5fca7b"><g class="fills" id="fills-b97a0072-36b4-80d4-8006-51fccf5fca7b"><path d="M20.8399658203125,4.6099853515625C19.8084716796875,3.5780029296875,18.4091796875,2.9981689453125,16.949951171875,2.9981689453125C15.4908447265625,2.9981689453125,14.091552734375,3.5780029296875,13.06005859375,4.6099853515625L12,5.6700439453125L10.93994140625,4.6099853515625C8.7916259765625,2.461669921875,5.308349609375,2.461669921875,3.1600341796875,4.6099853515625C1.0115966796875,6.7584228515625,1.0115966796875,10.2415771484375,3.1600341796875,12.3900146484375L4.219970703125,13.449951171875L12,21.22998046875L19.780029296875,13.449951171875L20.8399658203125,12.3900146484375C21.8719482421875,11.3585205078125,22.4517822265625,9.9591064453125,22.4517822265625,8.5C22.4517822265625,7.0408935546875,21.8719482421875,5.6414794921875,20.8399658203125,4.6099853515625Z" fill="none" stroke-linejoin="round" stroke-linecap="round" style="fill: rgb(228, 30, 61); fill-opacity: 1;"/></g><g fill="none" stroke-linejoin="round" stroke-linecap="round" id="strokes-4b99f29f-6c71-80a1-8006-ad9a04011476-b97a0072-36b4-80d4-8006-51fccf5fca7b" class="strokes"><g class="inner-stroke-shape"><defs><clipPath id="inner-stroke-render-3-b97a0072-36b4-80d4-8006-51fccf5fca7b-0"><use href="#stroke-shape-render-3-b97a0072-36b4-80d4-8006-51fccf5fca7b-0"/></clipPath><path d="M20.8399658203125,4.6099853515625C19.8084716796875,3.5780029296875,18.4091796875,2.9981689453125,16.949951171875,2.9981689453125C15.4908447265625,2.9981689453125,14.091552734375,3.5780029296875,13.06005859375,4.6099853515625L12,5.6700439453125L10.93994140625,4.6099853515625C8.7916259765625,2.461669921875,5.308349609375,2.461669921875,3.1600341796875,4.6099853515625C1.0115966796875,6.7584228515625,1.0115966796875,10.2415771484375,3.1600341796875,12.3900146484375L4.219970703125,13.449951171875L12,21.22998046875L19.780029296875,13.449951171875L20.8399658203125,12.3900146484375C21.8719482421875,11.3585205078125,22.4517822265625,9.9591064453125,22.4517822265625,8.5C22.4517822265625,7.0408935546875,21.8719482421875,5.6414794921875,20.8399658203125,4.6099853515625Z" id="stroke-shape-render-3-b97a0072-36b4-80d4-8006-51fccf5fca7b-0" style="fill: none; stroke-width: 4; stroke: rgb(228, 30, 61); stroke-opacity: 1;"/></defs><use href="#stroke-shape-render-3-b97a0072-36b4-80d4-8006-51fccf5fca7b-0" clip-path="url('#inner-stroke-render-3-b97a0072-36b4-80d4-8006-51fccf5fca7b-0')"/></g></g></g></g></svg>