<svg width="24" xmlns="http://www.w3.org/2000/svg" height="24" id="screenshot-b97a0072-36b4-80d4-8006-51fd0ce4e582" viewBox="0 0 24 24" xmlns:xlink="http://www.w3.org/1999/xlink" fill="none" version="1.1"><g id="shape-b97a0072-36b4-80d4-8006-51fd0ce4e582" width="24" height="24" rx="0" ry="0" style="fill: rgb(0, 0, 0);"><g id="shape-b97a0072-36b4-80d4-8006-51fd0ce6b186" style="display: none;"><g class="fills" id="fills-b97a0072-36b4-80d4-8006-51fd0ce6b186"><rect width="24" height="24" x="0" transform="matrix(1.000000, 0.000000, 0.000000, 1.000000, 0.000000, 0.000000)" style="fill: rgb(3, 139, 66); fill-opacity: 1;" ry="0" fill="none" rx="0" y="0"/></g><g fill="none" id="strokes-72cf3314-41bb-804e-8006-ad9a12bfa9ce-b97a0072-36b4-80d4-8006-51fd0ce6b186" class="strokes"><g class="stroke-shape"><rect rx="0" ry="0" x="0" y="0" transform="matrix(1.000000, 0.000000, 0.000000, 1.000000, 0.000000, 0.000000)" width="24" height="24" style="fill: none; stroke-width: 0; stroke: rgb(3, 139, 66); stroke-opacity: 1;"/></g></g></g><g id="shape-b97a0072-36b4-80d4-8006-51fd0ce784c4"><g class="fills" id="fills-b97a0072-36b4-80d4-8006-51fd0ce784c4"><path d="M11,2C15.0675048828125,2,18.426025390625,5.03564453125,18.9337158203125,8.9649658203125L21.1842041015625,12.503662109375C21.3323974609375,12.7366943359375,21.302490234375,13.084716796875,20.9593505859375,13.231689453125L19,14.071044921875L19,17C19,18.1046142578125,18.1046142578125,19,17,19L15.0009765625,19L15,22L6,22L6.000244140625,18.30615234375C6.0003662109375,17.125244140625,5.5634765625,16.0086669921875,4.7554931640625,15.0010986328125C3.6571044921875,13.63134765625,3,11.8924560546875,3,10C3,5.5816650390625,6.5816650390625,2,11,2ZM11,4C7.686279296875,4,5,6.686279296875,5,10C5,11.3848876953125,5.4681396484375,12.69287109375,6.3157958984375,13.7498779296875C7.40966796875,15.114013671875,8.0003662109375,16.667236328125,8.000244140625,18.3062744140625L8.0001220703125,20L13.000732421875,20L13.001708984375,17L17,17L17,12.751953125L18.5496826171875,12.088134765625L17.0072021484375,9.66259765625L16.9500732421875,9.22119140625C16.5665283203125,6.25146484375,14.0242919921875,4,11,4ZM10.4697265625,7.7625732421875L11,8.2928466796875L11.5302734375,7.7625732421875C12.2137451171875,7.0791015625,13.32177734375,7.0791015625,14.0052490234375,7.7625732421875C14.6885986328125,8.4459228515625,14.6885986328125,9.5540771484375,14.0052490234375,10.2374267578125L11,13.2425537109375L7.9947509765625,10.2374267578125C7.3114013671875,9.5540771484375,7.3114013671875,8.4459228515625,7.9947509765625,7.7625732421875C8.67822265625,7.0791015625,9.7862548828125,7.0791015625,10.4697265625,7.7625732421875Z" stroke="none" stroke-width="0" style="fill: rgb(3, 139, 66); fill-opacity: 1;"/></g></g></g></svg>