<svg width="26" xmlns="http://www.w3.org/2000/svg" height="26" id="screenshot-b97a0072-36b4-80d4-8006-51fe9ad5d4f9" viewBox="0 0 26 26" xmlns:xlink="http://www.w3.org/1999/xlink" fill="none" version="1.1"><g id="shape-b97a0072-36b4-80d4-8006-51fe9ad5d4f9" width="24" height="24" rx="0" ry="0" style="fill: rgb(0, 0, 0);"><g id="shape-b97a0072-36b4-80d4-8006-51fe9ad82d7a" style="display: none;"><g class="fills" id="fills-b97a0072-36b4-80d4-8006-51fe9ad82d7a"><rect width="26" height="26" x="0" transform="matrix(1.000000, 0.000000, 0.000000, 1.000000, 0.000000, 0.000000)" style="fill: none;" ry="0" fill="none" rx="0" y="0"/></g><g fill="none" id="strokes-1b2ccee2-bb29-80b1-8006-ad9a832d9420-b97a0072-36b4-80d4-8006-51fe9ad82d7a" class="strokes"><g class="stroke-shape"><rect rx="0" ry="0" x="0" y="0" transform="matrix(1.000000, 0.000000, 0.000000, 1.000000, 0.000000, 0.000000)" width="26" height="26" style="fill: none; stroke-width: 0; stroke: rgb(243, 155, 30); stroke-opacity: 1;"/></g></g></g><g id="shape-b97a0072-36b4-80d4-8006-51fe9ad8c00d"><g class="fills" id="fills-b97a0072-36b4-80d4-8006-51fe9ad8c00d"><path d="M16.34423828125,0.814208984375C16.3447265625,0.598388671875,16.25927734375,0.391357421875,16.1068115234375,0.238525390625C15.9544677734375,0.0859375,15.74755859375,0,15.53173828125,0L10.689208984375,0C10.24072265625,0,9.876708984375,0.36572265625,9.876708984375,0.814208984375C9.8758544921875,1.259765625,9.516357421875,1.621337890625,9.07080078125,1.625C8.624755859375,1.625,8.26318359375,1.986572265625,8.26318359375,2.4326171875L8.26318359375,3.25C8.26318359375,3.69873046875,8.626953125,4.0625,9.07568359375,4.0625L17.148681640625,4.0625C17.597412109375,4.0625,17.961181640625,3.69873046875,17.961181640625,3.25L17.961181640625,2.4326171875C17.961181640625,2.21826171875,17.8758544921875,2.012451171875,17.7239990234375,1.861083984375C17.5721435546875,1.70947265625,17.3663330078125,1.62451171875,17.15185546875,1.625C16.7056884765625,1.622314453125,16.3450927734375,1.26025390625,16.34423828125,0.814208984375" stroke="none" stroke-width="0" style="fill: rgb(243, 155, 30); fill-opacity: 1;"/></g></g><g id="shape-b97a0072-36b4-80d4-8006-51fe9ad9718f"><g class="fills" id="fills-b97a0072-36b4-80d4-8006-51fe9ad9718f"><path d="M5.858154296875,3.25C5.409423828125,3.25,5.045654296875,3.61376953125,5.045654296875,4.0625L5.045654296875,23.5625C5.045654296875,24.01123046875,5.409423828125,24.375,5.858154296875,24.375L20.483154296875,24.375C20.931884765625,24.375,21.295654296875,24.01123046875,21.295654296875,23.5625L21.295654296875,4.0625C21.295654296875,3.61376953125,20.931884765625,3.25,20.483154296875,3.25L19.670654296875,3.25C19.221923828125,3.25,18.858154296875,2.88623046875,18.858154296875,2.4375C18.858154296875,1.98876953125,19.221923828125,1.625,19.670654296875,1.625L20.483154296875,1.625C21.829345703125,1.625,22.920654296875,2.71630859375,22.920654296875,4.0625L22.920654296875,23.5625C22.920654296875,24.90869140625,21.829345703125,26,20.483154296875,26L5.858154296875,26C4.511962890625,26,3.420654296875,24.90869140625,3.420654296875,23.5625L3.420654296875,4.0625C3.420654296875,2.71630859375,4.511962890625,1.625,5.858154296875,1.625L6.670654296875,1.625C7.119384765625,1.625,7.483154296875,1.98876953125,7.483154296875,2.4375C7.483154296875,2.88623046875,7.119384765625,3.25,6.670654296875,3.25Z" stroke="none" stroke-width="0" style="fill: rgb(243, 155, 30); fill-opacity: 1;"/></g></g><g id="shape-b97a0072-36b4-80d4-8006-51fe9ad9f053"><g class="fills" id="fills-b97a0072-36b4-80d4-8006-51fe9ad9f053"><path d="M13.1104736328125,10.533203125C15.801513671875,7.814697265625,22.52734375,12.571044921875,13.1104736328125,18.6875C3.693603515625,12.571044921875,10.4195556640625,7.816162109375,13.1104736328125,10.533203125" stroke="none" stroke-width="0" style="fill: rgb(243, 155, 30); fill-opacity: 1;"/></g></g></g></svg>