<svg xmlns="http://www.w3.org/2000/svg" version="1.1" xmlns:xlink="http://www.w3.org/1999/xlink" xmlns:svgjs="http://svgjs.dev/svgjs" viewBox="0 0 1422 800"><defs><linearGradient x1="50%" y1="0%" x2="50%" y2="100%" id="oooscillate-grad"><stop stop-color="hsl(206, 75%, 49%)" stop-opacity="1" offset="0%"></stop><stop stop-color="hsl(331, 90%, 56%)" stop-opacity="1" offset="100%"></stop></linearGradient></defs><g stroke-width="2" stroke="hsl(0, 0%, 95%)" fill="none" stroke-linecap="round"><path d="M 0 528 Q 355.5 290 711 400 Q 1066.5 510 1422 528" opacity="0.33"></path><path d="M 0 504 Q 355.5 290 711 400 Q 1066.5 510 1422 504" opacity="0.20"></path><path d="M 0 480 Q 355.5 290 711 400 Q 1066.5 510 1422 480" opacity="0.58"></path><path d="M 0 456 Q 355.5 290 711 400 Q 1066.5 510 1422 456" opacity="0.28"></path><path d="M 0 432 Q 355.5 290 711 400 Q 1066.5 510 1422 432" opacity="0.32"></path><path d="M 0 408 Q 355.5 290 711 400 Q 1066.5 510 1422 408" opacity="0.18"></path><path d="M 0 384 Q 355.5 290 711 400 Q 1066.5 510 1422 384" opacity="0.12"></path><path d="M 0 360 Q 355.5 290 711 400 Q 1066.5 510 1422 360" opacity="0.64"></path><path d="M 0 336 Q 355.5 290 711 400 Q 1066.5 510 1422 336" opacity="0.14"></path><path d="M 0 312 Q 355.5 290 711 400 Q 1066.5 510 1422 312" opacity="0.38"></path><path d="M 0 288 Q 355.5 290 711 400 Q 1066.5 510 1422 288" opacity="0.35"></path><path d="M 0 264 Q 355.5 290 711 400 Q 1066.5 510 1422 264" opacity="0.99"></path><path d="M 0 240 Q 355.5 290 711 400 Q 1066.5 510 1422 240" opacity="0.74"></path><path d="M 0 216 Q 355.5 290 711 400 Q 1066.5 510 1422 216" opacity="0.42"></path><path d="M 0 192 Q 355.5 290 711 400 Q 1066.5 510 1422 192" opacity="0.23"></path><path d="M 0 168 Q 355.5 290 711 400 Q 1066.5 510 1422 168" opacity="0.21"></path><path d="M 0 144 Q 355.5 290 711 400 Q 1066.5 510 1422 144" opacity="0.98"></path><path d="M 0 120 Q 355.5 290 711 400 Q 1066.5 510 1422 120" opacity="0.23"></path><path d="M 0 96 Q 355.5 290 711 400 Q 1066.5 510 1422 96" opacity="0.66"></path><path d="M 0 72 Q 355.5 290 711 400 Q 1066.5 510 1422 72" opacity="0.42"></path><path d="M 0 48 Q 355.5 290 711 400 Q 1066.5 510 1422 48" opacity="0.16"></path></g></svg>