<?xml version="1.0" encoding="UTF-8"?>
<svg id="Capa_2" data-name="Capa 2" xmlns="http://www.w3.org/2000/svg" viewBox="0 0 308.75 306.06">
  <defs>
    <style>
      .cls-1 {
        fill: #22b573;
      }

      .cls-1, .cls-2 {
        stroke-width: 0px;
      }
    </style>
  </defs>
  <g id="Capa_1-2" data-name="Capa 1">
    <g>
      <path class="cls-2" d="m23.54,23.54c0,1.69,0,2.92,0,4.14,0,22.21,0,44.42,0,66.62,0,5.14-2.35,8.95-7.03,10.99-4.4,1.92-8.68,1.27-12.39-1.88C1.46,101.16.06,98.22.06,94.74c-.02-24.06-.15-48.12.07-72.18C.24,10.52,10.43.27,22.47.15,46.53-.09,70.59,0,94.65.1c6.42.02,11.48,5.46,11.44,11.78-.04,6.48-5.18,11.63-11.87,11.65-22.21.05-44.42.02-66.62.02-1.22,0-2.43,0-4.06,0Z"/>
      <path class="cls-2" d="m282.52,23.54c-1.55,0-2.75,0-3.96,0-22.2,0-44.4.04-66.6-.02-8.84-.03-14.48-8.83-10.75-16.67,2.03-4.25,5.53-6.73,10.24-6.75,24.05-.08,48.1-.19,72.15.05,12.02.12,22.21,10.38,22.32,22.44.23,24.05.14,48.1.04,72.15-.02,6.48-5.37,11.45-11.74,11.43-6.52-.01-11.66-5.06-11.68-11.79-.06-22.3-.03-44.61-.03-66.91,0-1.13,0-2.25,0-3.93Z"/>
      <path class="cls-2" d="m23.54,282.54c1.78,0,3.01,0,4.24,0,21.9,0,43.8,0,65.7,0,7.37,0,12.69,5.02,12.62,11.82-.06,6.67-5.36,11.65-12.53,11.65-23.13.02-46.26.05-69.4,0-13.95-.04-24.09-10.22-24.12-24.21-.05-23.03-.03-46.06,0-69.09,0-7.34,5.08-12.73,11.84-12.66,6.68.07,11.64,5.33,11.64,12.52.03,22,.01,44,.01,66,0,1.21,0,2.41,0,3.96Z"/>
      <path class="cls-2" d="m282.52,282.54c0-1.58,0-2.78,0-3.99,0-21.99-.01-43.98.01-65.98,0-6.27,3.72-11.01,9.31-12.07,7.75-1.47,14.15,3.97,14.16,12.16.03,23.12.02,46.25,0,69.37,0,1.63-.18,3.29-.48,4.89-2.11,10.98-11.42,19-22.61,19.06-23.64.13-47.27.08-70.91.03-6.81-.02-12.08-5.39-11.95-11.92.12-6.47,5.28-11.52,11.98-11.53,22.09-.04,44.19-.02,66.28-.02,1.23,0,2.46,0,4.21,0Z"/>
      <g>
        <path class="cls-2" d="m152.78,225.47c-28.74,0-57.49,0-86.23,0-8.03,0-11.6-3.56-11.6-11.55,0-40.63,0-81.27,0-121.9,0-7.82,3.61-11.42,11.46-11.42,57.74,0,115.48,0,173.23,0,7.85,0,11.47,3.61,11.47,11.41,0,40.72,0,81.44,0,122.16,0,7.63-3.68,11.3-11.33,11.3-29,0-58,0-87,0Zm78.68-125.12H74.72v105.41h156.74v-105.41Z"/>
        <g>
          <path class="cls-2" d="m185.5,120.57c7.56,0,15.12,0,22.68,0,5.61,0,9.56,2.68,9.52,6.4-.04,3.63-3.99,6.28-9.47,6.28-15.28.01-30.55.01-45.83,0-5.49,0-9.37-2.65-9.38-6.32-.01-3.69,3.86-6.34,9.32-6.35,7.72-.02,15.43,0,23.15,0Z"/>
          <path class="cls-2" d="m185.5,146.69c7.56,0,15.12,0,22.68,0,5.61,0,9.56,2.68,9.52,6.4-.04,3.63-3.99,6.28-9.47,6.28-15.28.01-30.55.01-45.83,0-5.49,0-9.37-2.65-9.38-6.32-.01-3.69,3.86-6.34,9.32-6.35,7.72-.02,15.43,0,23.15,0Z"/>
          <path class="cls-2" d="m185.5,172.81c7.56,0,15.12,0,22.68,0,5.61,0,9.56,2.68,9.52,6.4-.04,3.63-3.99,6.28-9.47,6.28-15.28.01-30.55.01-45.83,0-5.49,0-9.37-2.65-9.38-6.32-.01-3.69,3.86-6.34,9.32-6.35,7.72-.02,15.43,0,23.15,0Z"/>
          <path class="cls-2" d="m86.63,140.52v26.67c0,6.62,5.37,11.99,11.99,11.99h26.67c6.62,0,11.99-5.37,11.99-11.99v-26.67c0-6.62-5.37-11.99-11.99-11.99h-26.67c-6.62,0-11.99,5.37-11.99,11.99Zm34.23,28.14h-17.82c-3.25,0-5.89-2.64-5.89-5.89v-17.82c0-3.25,2.64-5.89,5.89-5.89h17.82c3.25,0,5.89,2.64,5.89,5.89v17.82c0,3.25-2.64,5.89-5.89,5.89Z"/>
        </g>
      </g>
      <rect class="cls-1" y="142.04" width="308.75" height="21.97"/>
    </g>
  </g>
</svg>