<svg width="31" xmlns="http://www.w3.org/2000/svg" height="25" id="screenshot-a8e8d449-023b-802a-8006-880351c27c80" viewBox="0 0 31 25" xmlns:xlink="http://www.w3.org/1999/xlink" fill="none" version="1.1"><g id="shape-a8e8d449-023b-802a-8006-880351c27c80" rx="0" ry="0"><g id="shape-a8e8d449-023b-802a-8006-87fa9ce3efeb"><g class="fills" id="fills-a8e8d449-023b-802a-8006-87fa9ce3efeb"><path d="M8.611328125,0L3.4453125,0C1.54296875,0,0,1.24609375,0,2.77734375L0,6.943359375M31,6.943359375L31,2.77734375C31,1.24609375,29.45703125,0,27.5546875,0L22.388671875,0M22.388671875,25L27.5546875,25C29.45703125,25,31,23.7578125,31,22.22265625L31,18.056640625M0,18.056640625L0,22.22265625C0,23.7578125,1.54296875,25,3.4453125,25L8.611328125,25" fill="none" stroke-linejoin="round" stroke-linecap="round" style="fill: none;"/></g><g fill="none" stroke-linejoin="round" stroke-linecap="round" id="strokes-43e788e6-556a-8031-8006-8803bbfa9b83-a8e8d449-023b-802a-8006-87fa9ce3efeb" class="strokes"><g class="stroke-shape"><path d="M8.611328125,0L3.4453125,0C1.54296875,0,0,1.24609375,0,2.77734375L0,6.943359375M31,6.943359375L31,2.77734375C31,1.24609375,29.45703125,0,27.5546875,0L22.388671875,0M22.388671875,25L27.5546875,25C29.45703125,25,31,23.7578125,31,22.22265625L31,18.056640625M0,18.056640625L0,22.22265625C0,23.7578125,1.54296875,25,3.4453125,25L8.611328125,25" style="fill: none; stroke-width: 2; stroke: rgb(114, 225, 97); stroke-opacity: 1;"/></g></g></g><g id="shape-a8e8d449-023b-802a-8006-87fa9ce3efec" rx="0" ry="0"><g id="shape-a8e8d449-023b-802a-8006-87fa9ce3efed"><g class="fills" id="fills-a8e8d449-023b-802a-8006-87fa9ce3efed"><rect width="23.5" height="17.57746478873014" x="3.5" stroke-linejoin="round" transform="matrix(1.000000, 0.000000, 0.000000, 1.000000, 0.000000, 0.000000)" style="fill: none;" ry="0" fill="none" stroke-linecap="round" rx="0" y="4.000000000007276"/></g><g fill="none" stroke-linejoin="round" stroke-linecap="round" id="strokes-43e788e6-556a-8031-8006-8803bbfbb99d-a8e8d449-023b-802a-8006-87fa9ce3efed" class="strokes"><g class="inner-stroke-shape" transform="matrix(1.000000, 0.000000, 0.000000, 1.000000, 0.000000, 0.000000)"><defs><clipPath id="inner-stroke-render-4-a8e8d449-023b-802a-8006-87fa9ce3efed-0"><use href="#stroke-shape-render-4-a8e8d449-023b-802a-8006-87fa9ce3efed-0"/></clipPath><rect rx="0" ry="0" x="3.5" y="4.000000000007276" width="23.5" height="17.57746478873014" id="stroke-shape-render-4-a8e8d449-023b-802a-8006-87fa9ce3efed-0" style="fill: none; stroke-width: 4; stroke: rgb(138, 138, 138); stroke-opacity: 0.938889;"/></defs><use href="#stroke-shape-render-4-a8e8d449-023b-802a-8006-87fa9ce3efed-0" clip-path="url('#inner-stroke-render-4-a8e8d449-023b-802a-8006-87fa9ce3efed-0')"/></g></g></g><g id="shape-a8e8d449-023b-802a-8006-87fa9ce3efee"><g class="fills" id="fills-a8e8d449-023b-802a-8006-87fa9ce3efee"><path d="M5,9.998046875L26,9.998046875" fill="none" stroke-linejoin="round" stroke-linecap="round" style="fill: none;"/></g><g fill="none" stroke-linejoin="round" stroke-linecap="round" id="strokes-43e788e6-556a-8031-8006-8803bbfc70ff-a8e8d449-023b-802a-8006-87fa9ce3efee" class="strokes"><g class="stroke-shape"><path d="M5,9.998046875L26,9.998046875" style="fill: none; stroke-width: 2; stroke: rgb(138, 138, 138); stroke-opacity: 0.938889;"/></g></g></g><g id="shape-a8e8d449-023b-802a-8006-87fa9ce3efef" width="24" class="feather feather-user" height="24" rx="0" ry="0" style="fill: rgb(0, 0, 0);"><g id="shape-a8e8d449-023b-802a-8006-87fa9ce3eff0" style="display: none;"><g class="fills" id="fills-a8e8d449-023b-802a-8006-87fa9ce3eff0"><rect width="11.058823529405345" height="11.154929577467556" x="4.756684491978376" stroke-linejoin="round" transform="matrix(1.000000, 0.000000, 0.000000, 1.000000, 0.000000, 0.000000)" style="fill: none;" ry="0" fill="none" stroke-linecap="round" rx="0" y="10.84507042253972"/></g><g fill="none" stroke-linejoin="round" stroke-linecap="round" id="strokes-43e788e6-556a-8031-8006-8803bbfce40b-a8e8d449-023b-802a-8006-87fa9ce3eff0" class="strokes"><g class="inner-stroke-shape" transform="matrix(1.000000, 0.000000, 0.000000, 1.000000, 0.000000, 0.000000)"><defs><clipPath id="inner-stroke-render-7-a8e8d449-023b-802a-8006-87fa9ce3eff0-0"><use href="#stroke-shape-render-7-a8e8d449-023b-802a-8006-87fa9ce3eff0-0"/></clipPath><rect rx="0" ry="0" x="4.756684491978376" y="10.84507042253972" width="11.058823529405345" height="11.154929577467556" id="stroke-shape-render-7-a8e8d449-023b-802a-8006-87fa9ce3eff0-0" style="fill: none; stroke-width: 4; stroke: rgb(138, 138, 138); stroke-opacity: 0.938889;"/></defs><use href="#stroke-shape-render-7-a8e8d449-023b-802a-8006-87fa9ce3eff0-0" clip-path="url('#inner-stroke-render-7-a8e8d449-023b-802a-8006-87fa9ce3eff0-0')"/></g></g></g><g id="shape-a8e8d449-023b-802a-8006-87fa9ce3eff1"><g class="fills" id="fills-a8e8d449-023b-802a-8006-87fa9ce3eff1"><path d="M13.97265625,20.60546875L13.97265625,19.67578125C13.97265625,18.6484375,13.1484375,17.818359375,12.12890625,17.818359375L8.44140625,17.818359375C7.42578125,17.818359375,6.6015625,18.6484375,6.6015625,19.67578125L6.6015625,20.60546875" fill="none" stroke-linejoin="round" stroke-linecap="round" style="fill: none;"/></g><g fill="none" stroke-linejoin="round" stroke-linecap="round" id="strokes-43e788e6-556a-8031-8006-8803bbfd6c32-a8e8d449-023b-802a-8006-87fa9ce3eff1" class="strokes"><g class="stroke-shape"><path d="M13.97265625,20.60546875L13.97265625,19.67578125C13.97265625,18.6484375,13.1484375,17.818359375,12.12890625,17.818359375L8.44140625,17.818359375C7.42578125,17.818359375,6.6015625,18.6484375,6.6015625,19.67578125L6.6015625,20.60546875" style="fill: none; stroke-width: 2; stroke: rgb(138, 138, 138); stroke-opacity: 0.938889;"/></g></g></g><g id="shape-a8e8d449-023b-802a-8006-87fa9ce3eff2"><g class="fills" id="fills-a8e8d449-023b-802a-8006-87fa9ce3eff2"><ellipse cy="14.098591549296543" stroke-linejoin="round" transform="matrix(1.000000, 0.000000, 0.000000, 1.000000, 0.000000, 0.000000)" style="fill: none;" ry="1.859154929577926" fill="none" stroke-linecap="round" rx="1.8431372549021035" cx="10.28609625667741"/></g><g fill="none" stroke-linejoin="round" stroke-linecap="round" id="strokes-43e788e6-556a-8031-8006-8803bbfdbd36-a8e8d449-023b-802a-8006-87fa9ce3eff2" class="strokes"><g class="inner-stroke-shape" transform="matrix(1.000000, 0.000000, 0.000000, 1.000000, 0.000000, 0.000000)"><defs><clipPath id="inner-stroke-render-9-a8e8d449-023b-802a-8006-87fa9ce3eff2-0"><use href="#stroke-shape-render-9-a8e8d449-023b-802a-8006-87fa9ce3eff2-0"/></clipPath><ellipse cx="10.28609625667741" cy="14.098591549296543" rx="1.8431372549021035" ry="1.859154929577926" id="stroke-shape-render-9-a8e8d449-023b-802a-8006-87fa9ce3eff2-0" style="fill: none; stroke-width: 4; stroke: rgb(138, 138, 138); stroke-opacity: 0.938889;"/></defs><use href="#stroke-shape-render-9-a8e8d449-023b-802a-8006-87fa9ce3eff2-0" clip-path="url('#inner-stroke-render-9-a8e8d449-023b-802a-8006-87fa9ce3eff2-0')"/></g></g></g></g></g></g></svg>