<?xml version="1.0" encoding="UTF-8"?>
<svg id="Capa_2" data-name="Capa 2" xmlns="http://www.w3.org/2000/svg" viewBox="0 0 463.54 294.52">
  <defs>
    <style>
      .cls-1 {
        fill: #9f9f9f;
      }

      .cls-1, .cls-2 {
        stroke-width: 0px;
      }

      .cls-2 {
        fill: #007cba;
      }
    </style>
  </defs>
  <g id="Capa_1-2" data-name="Capa 1">
    <g>
      <g id="isologo">
        <path class="cls-1" d="m301.97,170.74c-21.07,5.33-36.33,16.42-51.75,27.01-40.4,27.71-96.29,17.16-121.14-5.9-7.46-6.9-13.99-14.43-17.19-24.31-.94-2.91-2.04-6.1.43-8.63,2.48-2.53,5.26-.11,7.53.86,29.36,12.48,59.13,15.4,89.89,5.33,13.67-4.47,27.75-2.23,41.67-.51,1.87.23,3.74.49,4.09,2.81,1.34,8.88,7.65,7.08,13.32,6.02,10.05-1.88,20.02-4.4,33.16-2.68Z"/>
        <path class="cls-1" d="m185.15,48.9c-5.55-20.27-3.82-27.93,10.32-48.9,5.61,13.12,62.96,147.92,63.54,149.97,2.21,7.98.31,9.82-7.8,8.27-25.5-4.89-50.91-8.97-76.98-2.91-29.42,6.9-28.83-39.79-24.64-50.72,1.63-4.23,2.82-5.57,6.67-2.29,6.12,5.21,11.99,10.82,20.45,14.32-15.75-21.66-24.92-44.01-8.94-69.74,8.43,11.83,28.73,42.5,30.11,41.76,1.04-.6-9.67-28.61-12.73-39.75Z"/>
      </g>
      <g>
        <path class="cls-2" d="m34.59,294.52H0v-80.52h11.68v73.63h22.91v6.89Z"/>
        <path class="cls-2" d="m52.94,224.89h-11.34v-10.68h11.34v10.68Zm0,69.62h-11.34v-61.73h11.34v61.73Z"/>
        <path class="cls-2" d="m81.74,239.46v-6.67h12.57c13.35,0,16.79,5.12,16.79,18.91v23.91c0,13.79-3.45,18.91-16.79,18.91h-30.03v-80.19h11.34v73.52h14.68c7.9,0,9.45-1.89,9.45-11.79v-24.8c0-9.9-1.56-11.79-9.45-11.79h-8.56Z"/>
        <path class="cls-2" d="m139.57,268.71v-6.45h6.34c7.9,0,9.45-2.11,9.45-8.23v-6.01c0-6.67-1.56-8.56-9.45-8.56h-4.67c-7.9,0-9.45,1.89-9.45,11.79v24.8c0,9.9,1.56,11.79,9.45,11.79h21.02v6.67h-25.02c-13.35,0-16.79-5.12-16.79-18.91v-23.91c0-13.79,3.45-18.91,16.79-18.91h12.68c13.35,0,16.79,5.12,16.79,14.57v6.79c0,9.45-3.45,14.57-16.79,14.57h-10.34Z"/>
        <path class="cls-2" d="m191.51,232.79h11.57v6.67h-7.56c-7.9,0-9.45,1.89-9.45,11.79v43.26h-11.34v-42.82c0-13.79,3.45-18.91,16.79-18.91Z"/>
        <path class="cls-2" d="m261.24,294.52h-24.91v-6.89h22.69c6.34,0,9.57-2.53,9.57-15.62,0-11.49-1.78-13.55-10.68-13.55h-8.45c-11.23,0-15.13-5.63-15.13-22.05,0-14.13,4.56-22.4,17.13-22.4h21.69v6.89h-18.91c-6.12,0-9.12,2.87-9.12,13.9s1.22,13.21,9.12,13.21h7.9c12.01,0,17.24,3.91,17.24,22.28,0,16.54-5,24.24-18.13,24.24Z"/>
        <path class="cls-2" d="m311.62,257.48v6.45h-4.78c-7.9,0-9.45,2.11-9.45,8.23v7.12c0,6.67,1.56,8.56,9.45,8.56h12.57v-36.59c0-9.9-1.56-11.79-9.45-11.79h-16.01v-6.67h20.02c13.35,0,16.79,5.12,16.79,18.91v42.82h-27.92c-13.35,0-16.79-5.12-16.79-14.57v-7.9c0-9.45,3.45-14.57,16.79-14.57h8.79Z"/>
        <path class="cls-2" d="m352.77,294.52h-11.34v-80.19h11.34v80.19Z"/>
        <path class="cls-2" d="m398.81,287.84v-55.05h11.34v61.73h-29.92c-13.35,0-16.79-5.12-16.79-18.91v-42.82h11.34v43.26c0,9.9,1.56,11.79,9.45,11.79h14.57Z"/>
        <path class="cls-2" d="m445.63,294.52h-24.58v-6.67h22.35c6.34,0,9.79-.56,9.79-10.57,0-8.67-1.67-9.9-10.9-9.9h-8.34c-11.01,0-14.9-4.78-14.9-17.46,0-10.79,4.45-17.13,16.9-17.13h21.47v6.67h-18.69c-6.12,0-9.34.78-9.34,9.23s1.56,9.68,9.34,9.68h7.79c12.68,0,17.02,3.78,17.02,17.57,0,12.68-4.89,18.57-17.91,18.57Z"/>
      </g>
    </g>
  </g>
</svg>