<?xml version="1.0" encoding="UTF-8"?>
<svg id="Capa_2" data-name="Capa 2" xmlns="http://www.w3.org/2000/svg" viewBox="0 0 288.14 288.14">
  <defs>
    <style>
      .cls-1 {
        fill: #050000;
      }

      .cls-1, .cls-2 {
        stroke-width: 0px;
      }

      .cls-2 {
        fill: #fff;
      }
    </style>
  </defs>
  <g id="Capa_1-2" data-name="Capa 1">
    <path class="cls-2" d="m144.12,288.14C64.46,288.14.01,223.75,0,144.15-.01,64.31,64.5-.05,144.49,0c79.38.05,143.7,64.76,143.65,144.52-.05,79.19-64.65,143.61-144.02,143.62Zm42.28-133.64c9.19,5.53,14.04,13.19,14.79,23.34,1.22,16.63-9.21,31.76-27,39.29-11.33,4.8-23.26,5.63-35.34,4.84-29.02-1.91-48.21-17.39-55.82-45.38-5.93-21.85-5.9-43.89.18-65.69,6.62-23.74,21.66-39.12,46.44-43.41,7.48-1.29,15.3-1.7,22.87-1.16,28.14,2.04,47.33,16.12,56.12,43.41.34,1.07.85,2.08,1.41,3.45,5.11-1.37,10.02-2.69,15.38-4.12-6.54-22.67-18.5-40.28-39.5-50.89-11.05-5.58-22.92-8.06-35.19-8.58-40.36-1.72-71.6,15.94-83.11,56.93-7.23,25.76-7.1,51.8.68,77.44,8.02,26.42,24.86,44.52,52.13,51.67,15.4,4.04,31.01,4.15,46.58.93,16.46-3.41,30.08-11.66,40.2-25.14,18.66-24.84,11.58-58.42-15.41-72.76-3.69-1.96-5.18-4.18-5.7-8.24-3.38-26.57-22.24-40.55-48.61-36.11-10.96,1.84-19.76,7.24-26.27,16.98,4.61,3.18,8.81,6.07,13.06,9,9.12-10.68,20.21-12.37,32.46-8.2,7.66,2.61,12.38,10.08,12.55,18.52-.31.1-.62.31-.92.29-1.16-.09-2.31-.3-3.47-.38-13.71-.99-27.41-1.58-39.97,5.52-10.6,6-16.28,15.07-15.86,27.44.42,12.15,6.58,20.76,17.25,26.11,23.56,11.81,50.18.2,57.54-24.99.92-3.15,1.59-6.37,2.51-10.09Z"/>
    <path class="cls-1" d="m186.4,154.5c-.92,3.72-1.59,6.94-2.51,10.09-7.36,25.19-33.98,36.8-57.54,24.99-10.67-5.35-16.83-13.96-17.25-26.11-.42-12.37,5.26-21.44,15.86-27.44,12.55-7.1,26.25-6.51,39.97-5.52,1.16.08,2.31.29,3.47.38.3.02.61-.19.92-.3-.18-8.43-4.89-15.9-12.55-18.51-12.24-4.17-23.34-2.49-32.46,8.2-4.25-2.93-8.44-5.82-13.06-9,6.51-9.74,15.31-15.13,26.27-16.98,26.38-4.44,45.24,9.53,48.61,36.11.52,4.07,2.02,6.29,5.7,8.24,26.99,14.35,34.08,47.92,15.41,72.76-10.13,13.48-23.74,21.73-40.2,25.14-15.57,3.22-31.18,3.11-46.58-.93-27.27-7.15-44.11-25.25-52.13-51.67-7.78-25.64-7.92-51.69-.68-77.44,11.51-40.99,42.75-58.65,83.11-56.93,12.26.52,24.14,3,35.19,8.58,20.99,10.61,32.95,28.22,39.5,50.89-5.36,1.44-10.26,2.75-15.38,4.12-.57-1.37-1.07-2.38-1.41-3.45-8.8-27.29-27.99-41.37-56.12-43.41-7.57-.55-15.39-.14-22.87,1.16-24.78,4.29-39.81,19.67-46.44,43.41-6.08,21.8-6.12,43.84-.18,65.69,7.6,28,26.79,43.47,55.82,45.38,12.08.79,24.01-.04,35.34-4.84,17.79-7.53,28.22-22.66,27-39.29-.74-10.15-5.6-17.8-14.79-23.34Zm-16.58-6.48c-11.48-1.86-22.73-2.97-33.78.9-7.11,2.49-11.06,7.92-10.85,14.01.22,6.17,4.56,11.03,11.8,13.22,18.64,5.62,34.37-7.55,32.83-28.13Z"/>
    <path class="cls-2" d="m169.81,148.02c1.54,20.58-14.19,33.74-32.83,28.13-7.24-2.18-11.58-7.05-11.8-13.22-.21-6.1,3.73-11.52,10.85-14.01,11.05-3.87,22.3-2.76,33.78-.9Z"/>
  </g>
</svg>