<svg width="300" xmlns="http://www.w3.org/2000/svg" height="190" id="screenshot-f3e65b87-38f7-80aa-8006-8ae31addb647" viewBox="0 0 300 190" xmlns:xlink="http://www.w3.org/1999/xlink" fill="none" version="1.1"><g id="shape-f3e65b87-38f7-80aa-8006-8ae31addb647" rx="0" ry="0"><g id="shape-f3e65b87-38f7-80aa-8006-8ae082e7a11e" rx="0" ry="0" style="opacity: 0.6; fill: rgb(0, 0, 0);"><g id="shape-f3e65b87-38f7-80aa-8006-8ae082e7a12a" rx="0" ry="0" style="fill: rgb(0, 0, 0);"><g id="shape-f3e65b87-38f7-80aa-8006-8ae082e7a135"><g class="fills" id="fills-f3e65b87-38f7-80aa-8006-8ae082e7a135"><path d="M195.4326171875,110.1435546875C181.796875,113.58203125,171.9208984375,120.736083984375,161.9404296875,127.5677490234375C135.7939453125,145.4432373046875,99.6220703125,138.6375732421875,83.5400390625,123.7615966796875C78.7119140625,119.3104248046875,74.4853515625,114.4527587890625,72.4140625,108.0792236328125C71.8056640625,106.2021484375,71.09375,104.1441650390625,72.6923828125,102.51220703125C74.2978515625,100.8800048828125,76.0966796875,102.441162109375,77.56640625,103.06689453125C96.5673828125,111.11767578125,115.8349609375,113.0013427734375,135.7421875,106.5052490234375C144.58984375,103.6217041015625,153.7021484375,105.0667724609375,162.7109375,106.17626953125C163.9208984375,106.32470703125,165.1318359375,106.4923095703125,165.3583984375,107.989013671875C166.2255859375,113.7174072265625,170.30859375,112.5562744140625,173.978515625,111.8724365234375C180.4833984375,110.65966796875,186.9345703125,109.0340576171875,195.439453125,110.1435546875Z" class="cls-1"/></g></g><g id="shape-f3e65b87-38f7-80aa-8006-8ae082e7a136"><g class="fills" id="fills-f3e65b87-38f7-80aa-8006-8ae082e7a136"><path d="M119.828125,31.5452880859375C116.2353515625,18.4691162109375,117.35546875,13.5277099609375,126.5068359375,0C130.1376953125,8.4637451171875,167.25390625,95.4224853515625,167.6298828125,96.7449951171875C169.0595703125,101.8929443359375,167.830078125,103.079833984375,162.5810546875,102.0799560546875C146.078125,98.9254150390625,129.6328125,96.29345703125,112.7607421875,100.2027587890625C93.7197265625,104.65380859375,94.1015625,74.5343017578125,96.8134765625,67.4833984375C97.8681640625,64.7547607421875,98.638671875,63.8902587890625,101.1298828125,66.0062255859375C105.0908203125,69.3671875,108.890625,72.9862060546875,114.3662109375,75.2440185546875C104.171875,61.2711181640625,98.2373046875,46.853271484375,108.5791015625,30.2550048828125C114.03515625,37.8863525390625,127.1728515625,57.6715087890625,128.06640625,57.1942138671875C128.7392578125,56.80712890625,121.80859375,38.7379150390625,119.828125,31.5516357421875Z" class="cls-1"/></g></g></g><g id="shape-f3e65b87-38f7-80aa-8006-8ae082e7a12b"><g class="fills" id="fills-f3e65b87-38f7-80aa-8006-8ae082e7a12b"><path d="M22.38671875,189.9935302734375L0,189.9935302734375L0,138.0504150390625L7.5595703125,138.0504150390625L7.5595703125,185.548828125L22.38671875,185.548828125L22.38671875,189.9935302734375Z" class="cls-2"/></g></g><g id="shape-f3e65b87-38f7-80aa-8006-8ae082e7a12c"><g class="fills" id="fills-f3e65b87-38f7-80aa-8006-8ae082e7a12c"><path d="M34.2626953125,145.0755615234375L26.9228515625,145.0755615234375L26.9228515625,138.1859130859375L34.2626953125,138.1859130859375L34.2626953125,145.0755615234375ZM34.2626953125,189.9871826171875L26.9228515625,189.9871826171875L26.9228515625,150.1654052734375L34.2626953125,150.1654052734375L34.2626953125,189.9871826171875Z" class="cls-2"/></g></g><g id="shape-f3e65b87-38f7-80aa-8006-8ae082e7a12d"><g class="fills" id="fills-f3e65b87-38f7-80aa-8006-8ae082e7a12d"><path d="M52.9013671875,154.474609375L52.9013671875,150.1717529296875L61.0361328125,150.1717529296875C69.6767578125,150.1717529296875,71.9033203125,153.4747314453125,71.9033203125,162.37060546875L71.9033203125,177.7947998046875C71.9033203125,186.690673828125,69.6708984375,189.9935302734375,61.0361328125,189.9935302734375L41.6015625,189.9935302734375L41.6015625,138.2633056640625L48.9404296875,138.2633056640625L48.9404296875,185.6907958984375L58.44140625,185.6907958984375C63.5546875,185.6907958984375,64.5576171875,184.4715576171875,64.5576171875,178.0850830078125L64.5576171875,162.0867919921875C64.5576171875,155.7001953125,63.5478515625,154.4810791015625,58.44140625,154.4810791015625L52.9013671875,154.4810791015625Z" class="cls-2"/></g></g><g id="shape-f3e65b87-38f7-80aa-8006-8ae082e7a12e"><g class="fills" id="fills-f3e65b87-38f7-80aa-8006-8ae082e7a12e"><path d="M90.3291015625,173.3436279296875L90.3291015625,169.1827392578125L94.4326171875,169.1827392578125C99.544921875,169.1827392578125,100.5478515625,167.8216552734375,100.5478515625,163.8736572265625L100.5478515625,159.99658203125C100.5478515625,155.69384765625,99.5380859375,154.474609375,94.4326171875,154.474609375L91.4091796875,154.474609375C86.296875,154.474609375,85.2939453125,155.69384765625,85.2939453125,162.0802001953125L85.2939453125,178.07861328125C85.2939453125,184.4649658203125,86.3037109375,185.6842041015625,91.4091796875,185.6842041015625L105.013671875,185.6842041015625L105.013671875,189.9871826171875L88.8212890625,189.9871826171875C80.1806640625,189.9871826171875,77.9541015625,186.6842041015625,77.9541015625,177.788330078125L77.9541015625,162.3641357421875C77.9541015625,153.46826171875,80.1875,150.1654052734375,88.8212890625,150.1654052734375L97.02734375,150.1654052734375C105.6669921875,150.1654052734375,107.8935546875,153.46826171875,107.8935546875,159.5643310546875L107.8935546875,163.944580078125C107.8935546875,170.0406494140625,105.6611328125,173.3436279296875,97.02734375,173.3436279296875L90.3349609375,173.3436279296875Z" class="cls-2"/></g></g><g id="shape-f3e65b87-38f7-80aa-8006-8ae082e7a12f"><g class="fills" id="fills-f3e65b87-38f7-80aa-8006-8ae082e7a12f"><path d="M123.9443359375,150.1717529296875L131.4326171875,150.1717529296875L131.4326171875,154.474609375L126.5390625,154.474609375C121.4267578125,154.474609375,120.4228515625,155.69384765625,120.4228515625,162.0802001953125L120.4228515625,189.9871826171875L113.083984375,189.9871826171875L113.083984375,162.3641357421875C113.083984375,153.46826171875,115.31640625,150.1654052734375,123.9501953125,150.1654052734375L123.9443359375,150.1717529296875" class="cls-2"/></g></g><g id="shape-f3e65b87-38f7-80aa-8006-8ae082e7a130"><g class="fills" id="fills-f3e65b87-38f7-80aa-8006-8ae082e7a130"><path d="M169.0732421875,189.9935302734375L152.951171875,189.9935302734375L152.951171875,185.548828125L167.6357421875,185.548828125C171.7392578125,185.548828125,173.8291015625,183.9166259765625,173.8291015625,175.4725341796875C173.8291015625,168.0604248046875,172.677734375,166.7314453125,166.91796875,166.7314453125L161.44921875,166.7314453125C154.1806640625,166.7314453125,151.6572265625,163.0994873046875,151.6572265625,152.507080078125C151.6572265625,143.3919677734375,154.6083984375,138.056884765625,162.7431640625,138.056884765625L176.78125,138.056884765625L176.78125,142.5015869140625L164.5419921875,142.5015869140625C160.58203125,142.5015869140625,158.6396484375,144.35302734375,158.6396484375,151.4683837890625C158.6396484375,158.5838623046875,159.4296875,159.9901123046875,164.5419921875,159.9901123046875L169.6552734375,159.9901123046875C177.4287109375,159.9901123046875,180.8125,162.5125732421875,180.8125,174.3629150390625C180.8125,185.03271484375,177.5771484375,190,169.0791015625,190Z" class="cls-2"/></g></g><g id="shape-f3e65b87-38f7-80aa-8006-8ae082e7a131"><g class="fills" id="fills-f3e65b87-38f7-80aa-8006-8ae082e7a131"><path d="M201.6787109375,166.0992431640625L201.6787109375,170.2601318359375L198.5849609375,170.2601318359375C193.4716796875,170.2601318359375,192.46875,171.6212158203125,192.46875,175.5692138671875L192.46875,180.1622314453125C192.46875,184.4649658203125,193.478515625,185.6842041015625,198.5849609375,185.6842041015625L206.7197265625,185.6842041015625L206.7197265625,162.0802001953125C206.7197265625,155.69384765625,205.7099609375,154.474609375,200.6044921875,154.474609375L190.2421875,154.474609375L190.2421875,150.1717529296875L203.19921875,150.1717529296875C211.8388671875,150.1717529296875,214.0654296875,153.4747314453125,214.0654296875,162.37060546875L214.0654296875,189.9935302734375L195.99609375,189.9935302734375C187.3564453125,189.9935302734375,185.1298828125,186.690673828125,185.1298828125,180.594482421875L185.1298828125,175.4981689453125C185.1298828125,169.402099609375,187.3623046875,166.0992431640625,195.99609375,166.0992431640625L201.6845703125,166.0992431640625Z" class="cls-2"/></g></g><g id="shape-f3e65b87-38f7-80aa-8006-8ae082e7a132"><g class="fills" id="fills-f3e65b87-38f7-80aa-8006-8ae082e7a132"><path d="M228.310546875,189.9935302734375L220.9716796875,189.9935302734375L220.9716796875,138.2633056640625L228.310546875,138.2633056640625L228.310546875,189.9935302734375Z" class="cls-2"/></g></g><g id="shape-f3e65b87-38f7-80aa-8006-8ae082e7a133"><g class="fills" id="fills-f3e65b87-38f7-80aa-8006-8ae082e7a133"><path d="M258.1064453125,185.6842041015625L258.1064453125,150.1717529296875L265.4462890625,150.1717529296875L265.4462890625,189.9935302734375L246.08203125,189.9935302734375C237.4423828125,189.9935302734375,235.2158203125,186.690673828125,235.2158203125,177.7947998046875L235.2158203125,150.1717529296875L242.5546875,150.1717529296875L242.5546875,178.07861328125C242.5546875,184.4649658203125,243.5654296875,185.6842041015625,248.6708984375,185.6842041015625L258.1005859375,185.6842041015625Z" class="cls-2"/></g></g><g id="shape-f3e65b87-38f7-80aa-8006-8ae082e7a134"><g class="fills" id="fills-f3e65b87-38f7-80aa-8006-8ae082e7a134"><path d="M288.4091796875,189.9935302734375L272.5009765625,189.9935302734375L272.5009765625,185.6907958984375L286.9658203125,185.6907958984375C291.0693359375,185.6907958984375,293.3017578125,185.3294677734375,293.3017578125,178.8720703125C293.3017578125,173.2791748046875,292.220703125,172.4857177734375,286.2470703125,172.4857177734375L280.849609375,172.4857177734375C273.7236328125,172.4857177734375,271.2060546875,169.402099609375,271.2060546875,161.2222900390625C271.2060546875,154.26171875,274.0859375,150.1717529296875,282.1435546875,150.1717529296875L296.0390625,150.1717529296875L296.0390625,154.474609375L283.9423828125,154.474609375C279.982421875,154.474609375,277.8984375,154.9776611328125,277.8984375,160.4288330078125C277.8984375,165.8798828125,278.9072265625,166.67333984375,283.9423828125,166.67333984375L288.984375,166.67333984375C297.19140625,166.67333984375,300,169.11181640625,300,178.0076904296875C300,186.1875,296.8349609375,189.9871826171875,288.4091796875,189.9871826171875Z" class="cls-2"/></g></g></g></g></svg>