<svg width="33.25" xmlns="http://www.w3.org/2000/svg" height="36.539" id="screenshot-ec84adc2-1e8a-8051-8006-641cd7ed2a4e" viewBox="8474.875 -4423.039 33.25 36.539" xmlns:xlink="http://www.w3.org/1999/xlink" fill="none" version="1.1"><g id="shape-ec84adc2-1e8a-8051-8006-641cd7ed2a4e"><g class="fills" id="fills-ec84adc2-1e8a-8051-8006-641cd7ed2a4e"><path d="M8477.25,-4388.875L8486.0185546875,-4388.875L8486.0185546875,-4400.9326171875C8486.0185546875,-4401.47607421875,8486.203125,-4401.93115234375,8486.572265625,-4402.298828125C8486.939453125,-4402.66748046875,8487.39453125,-4402.8515625,8487.9375,-4402.8515625L8495.0625,-4402.8515625C8495.60546875,-4402.8515625,8496.0615234375,-4402.66748046875,8496.4306640625,-4402.298828125C8496.7978515625,-4401.93115234375,8496.9814453125,-4401.47607421875,8496.9814453125,-4400.9326171875L8496.9814453125,-4388.875L8505.75,-4388.875L8505.75,-4409.5185546875C8505.75,-4409.7626953125,8505.697265625,-4409.98388671875,8505.5908203125,-4410.18359375C8505.484375,-4410.3828125,8505.33984375,-4410.55712890625,8505.15625,-4410.7060546875L8492.369140625,-4420.34375C8492.125,-4420.5556640625,8491.8359375,-4420.662109375,8491.5,-4420.662109375C8491.1640625,-4420.662109375,8490.875,-4420.5556640625,8490.6328125,-4420.34375L8477.84375,-4410.7060546875C8477.662109375,-4410.5537109375,8477.5166015625,-4410.3798828125,8477.4091796875,-4410.18359375C8477.3017578125,-4409.9873046875,8477.248046875,-4409.765625,8477.25,-4409.5185546875ZM8474.875,-4388.875L8474.875,-4409.5185546875C8474.875,-4410.12646484375,8475.01171875,-4410.7021484375,8475.283203125,-4411.2451171875C8475.5556640625,-4411.7880859375,8475.931640625,-4412.2353515625,8476.4091796875,-4412.5869140625L8489.19921875,-4422.2724609375C8489.8681640625,-4422.78369140625,8490.6328125,-4423.0390625,8491.4931640625,-4423.0390625C8492.3525390625,-4423.0390625,8493.1220703125,-4422.78369140625,8493.80078125,-4422.2724609375L8506.5908203125,-4412.58935546875C8507.0703125,-4412.23779296875,8507.4453125,-4411.7900390625,8507.716796875,-4411.2451171875C8507.98828125,-4410.7021484375,8508.125,-4410.12646484375,8508.125,-4409.5185546875L8508.125,-4388.875C8508.125,-4388.23828125,8507.888671875,-4387.68359375,8507.4150390625,-4387.2099609375C8506.94140625,-4386.73681640625,8506.38671875,-4386.5,8505.75,-4386.5L8496.525390625,-4386.5C8495.98046875,-4386.5,8495.525390625,-4386.68359375,8495.1572265625,-4387.05078125C8494.7900390625,-4387.419921875,8494.6064453125,-4387.8759765625,8494.6064453125,-4388.4189453125L8494.6064453125,-4400.474609375L8488.3935546875,-4400.474609375L8488.3935546875,-4388.4189453125C8488.3935546875,-4387.8740234375,8488.2099609375,-4387.41796875,8487.8427734375,-4387.05078125C8487.474609375,-4386.68359375,8487.01953125,-4386.5,8486.4765625,-4386.5L8477.25,-4386.5C8476.61328125,-4386.5,8476.05859375,-4386.73681640625,8475.5849609375,-4387.2099609375C8475.111328125,-4387.68359375,8474.875,-4388.23828125,8474.875,-4388.875M8491.5,-4404.8134765625" style="fill: rgb(5, 8, 53); fill-opacity: 1;"/></g></g></svg>