<svg width="37" xmlns="http://www.w3.org/2000/svg" height="37" id="screenshot-7b3ef0c8-b42b-8085-8006-4ba3eead4d0c" viewBox="0 0 37 37" xmlns:xlink="http://www.w3.org/1999/xlink" fill="none" version="1.1"><g id="shape-7b3ef0c8-b42b-8085-8006-4ba3eead4d0c" width="24" class="feather feather-check-circle" height="24" rx="0" ry="0" style="fill: rgb(0, 0, 0);"><g id="shape-7b3ef0c8-b42b-8085-8006-4ba3eead4d3b" style="display: none;"><g class="fills" id="fills-7b3ef0c8-b42b-8085-8006-4ba3eead4d3b"><rect width="37" height="37" x="0" stroke-linejoin="round" transform="matrix(1.000000, 0.000000, 0.000000, 1.000000, 0.000000, 0.000000)" style="fill: none;" ry="0" fill="none" stroke-linecap="round" rx="0" y="0"/></g><g fill="none" stroke-linejoin="round" stroke-linecap="round" id="strokes-b716dc41-b9c8-8065-8006-a73b23449cac-7b3ef0c8-b42b-8085-8006-4ba3eead4d3b" class="strokes"><g class="inner-stroke-shape" transform="matrix(1.000000, 0.000000, 0.000000, 1.000000, 0.000000, 0.000000)"><defs><clipPath id="inner-stroke-render-2-7b3ef0c8-b42b-8085-8006-4ba3eead4d3b-0"><use href="#stroke-shape-render-2-7b3ef0c8-b42b-8085-8006-4ba3eead4d3b-0"/></clipPath><rect rx="0" ry="0" x="0" y="0" width="37" height="37" id="stroke-shape-render-2-7b3ef0c8-b42b-8085-8006-4ba3eead4d3b-0" style="fill: none; stroke-width: 6; stroke: rgb(0, 138, 64); stroke-opacity: 1;"/></defs><use href="#stroke-shape-render-2-7b3ef0c8-b42b-8085-8006-4ba3eead4d3b-0" clip-path="url('#inner-stroke-render-2-7b3ef0c8-b42b-8085-8006-4ba3eead4d3b-0')"/></g></g></g><g id="shape-7b3ef0c8-b42b-8085-8006-4ba3eead4d3c"><g class="fills" id="fills-7b3ef0c8-b42b-8085-8006-4ba3eead4d3c"><path d="M33.916748046875,17.0816650390625L33.916748046875,18.5C33.912841796875,25.32757568359375,29.41845703125,31.33935546875,22.87109375,33.27520751953125C16.32373046875,35.2110595703125,9.282958984375,32.60980224609375,5.56689453125,26.88214111328125C1.850830078125,21.15447998046875,2.3447265625,13.664794921875,6.78076171875,8.47467041015625C11.216796875,3.2845458984375,18.5380859375,1.63037109375,24.774658203125,4.4091796875" fill="none" stroke-linejoin="round" stroke-linecap="round" style="fill: none;"/></g><g fill="none" stroke-linejoin="round" stroke-linecap="round" id="strokes-b716dc41-b9c8-8065-8006-a73b2345ec08-7b3ef0c8-b42b-8085-8006-4ba3eead4d3c" class="strokes"><g class="stroke-shape"><path d="M33.916748046875,17.0816650390625L33.916748046875,18.5C33.912841796875,25.32757568359375,29.41845703125,31.33935546875,22.87109375,33.27520751953125C16.32373046875,35.2110595703125,9.282958984375,32.60980224609375,5.56689453125,26.88214111328125C1.850830078125,21.15447998046875,2.3447265625,13.664794921875,6.78076171875,8.47467041015625C11.216796875,3.2845458984375,18.5380859375,1.63037109375,24.774658203125,4.4091796875" style="fill: none; stroke-width: 3; stroke: rgb(0, 138, 64); stroke-opacity: 1;"/></g></g></g><g id="shape-7b3ef0c8-b42b-8085-8006-4ba3eead4d3d"><g class="fills" id="fills-7b3ef0c8-b42b-8085-8006-4ba3eead4d3d"><path d="M33.916748046875,6.16668701171875L18.5,21.5987548828125L13.875,16.9737548828125" fill="none" stroke-linejoin="round" stroke-linecap="round" style="fill: none;"/></g><g fill="none" stroke-linejoin="round" stroke-linecap="round" id="strokes-b716dc41-b9c8-8065-8006-a73b23464c67-7b3ef0c8-b42b-8085-8006-4ba3eead4d3d" class="strokes"><g class="stroke-shape"><path d="M33.916748046875,6.16668701171875L18.5,21.5987548828125L13.875,16.9737548828125" style="fill: none; stroke-width: 3; stroke: rgb(0, 138, 64); stroke-opacity: 1;"/></g></g></g></g></svg>