<svg fill="#fff" viewBox="0 0 256 256" id="Flat" xmlns="http://www.w3.org/2000/svg" stroke="#fff"><g id="SVGRepo_bgCarrier" stroke-width="0"></g><g id="SVGRepo_tracerCarrier" stroke-linecap="round" stroke-linejoin="round"></g><g id="SVGRepo_iconCarrier"> <path d="M232,104v48a16.01833,16.01833,0,0,1-16,16H168v48a16.01833,16.01833,0,0,1-16,16H104a16.01833,16.01833,0,0,1-16-16V168H40a16.01833,16.01833,0,0,1-16-16V104A16.01833,16.01833,0,0,1,40,88H88V40a16.01833,16.01833,0,0,1,16-16h48a16.01833,16.01833,0,0,1,16,16V88h48A16.01833,16.01833,0,0,1,232,104Z"></path> </g></svg>