<svg fill="#808080" height="215px" width="215px" version="1.1" id="Capa_1" xmlns="http://www.w3.org/2000/svg" xmlns:xlink="http://www.w3.org/1999/xlink" viewBox="-3.31 -3.31 36.67 36.67" xml:space="preserve" stroke="#808080"><g id="SVGRepo_bgCarrier" stroke-width="0"></g><g id="SVGRepo_tracerCarrier" stroke-linecap="round" stroke-linejoin="round"></g><g id="SVGRepo_iconCarrier"> <g> <path d="M15.025,10.646c-2.416,0-4.384,1.963-4.384,4.385c0,2.412,1.968,4.375,4.384,4.375c2.418,0,4.383-1.963,4.383-4.375 C19.408,12.608,17.443,10.646,15.025,10.646z"></path> <path d="M15.029,0.001C6.728,0.001,0,6.73,0,15.03c0,8.297,6.728,15.02,15.029,15.02c8.295,0,15.022-6.723,15.022-15.02 C30.052,6.73,23.324,0.001,15.029,0.001z M15.029,27.542c-6.916,0-12.52-5.602-12.52-12.512c0-6.918,5.604-12.52,12.52-12.52 c6.91,0,12.516,5.602,12.516,12.52C27.545,21.94,21.939,27.542,15.029,27.542z"></path> <g> </g> <g> </g> <g> </g> <g> </g> <g> </g> <g> </g> <g> </g> <g> </g> <g> </g> <g> </g> <g> </g> <g> </g> <g> </g> <g> </g> <g> </g> </g> </g></svg>